<?xml version="1.0" encoding="utf-8"?>
<!-- Generator: Adobe Illustrator 21.1.0, SVG Export Plug-In . SVG Version: 6.00 Build 0)  -->
<svg version="1.1" id="Layer_1" xmlns="http://www.w3.org/2000/svg" xmlns:xlink="http://www.w3.org/1999/xlink" x="0px" y="0px"
	 viewBox="0 0 954 1080" style="enable-background:new 0 0 954 1080;" xml:space="preserve">
<style type="text/css">
	.st0{opacity:0.3;}
	.st1{fill:url(#SVGID_1_);}
	.st2{fill:url(#SVGID_2_);}
	.st3{fill:url(#SVGID_3_);}
	.st4{fill:url(#SVGID_4_);}
	.st5{fill:url(#SVGID_5_);}
	.st6{fill:url(#SVGID_6_);}
	.st7{fill:url(#SVGID_7_);}
	.st8{fill:url(#SVGID_8_);}
	.st9{fill:url(#SVGID_9_);}
	.st10{fill:url(#SVGID_10_);}
	.st11{fill:url(#SVGID_11_);}
	.st12{fill:url(#SVGID_12_);}
	.st13{fill:url(#SVGID_13_);}
	.st14{fill:url(#SVGID_14_);}
	.st15{fill:url(#SVGID_15_);}
	.st16{fill:url(#SVGID_16_);}
	.st17{fill:url(#SVGID_17_);}
	.st18{fill:url(#SVGID_18_);}
	.st19{fill:url(#SVGID_19_);}
	.st20{fill:url(#SVGID_20_);}
	.st21{fill:url(#SVGID_21_);}
	.st22{fill:url(#SVGID_22_);}
	.st23{fill:url(#SVGID_23_);}
	.st24{fill:url(#SVGID_24_);}
	.st25{fill:url(#SVGID_25_);}
	.st26{fill:url(#SVGID_26_);}
	.st27{fill:url(#SVGID_27_);}
	.st28{fill:url(#SVGID_28_);}
	.st29{fill:url(#SVGID_29_);}
	.st30{fill:url(#SVGID_30_);}
	.st31{fill:url(#SVGID_31_);}
	.st32{fill:url(#SVGID_32_);}
	.st33{fill:url(#SVGID_33_);}
</style>
<g class="st0">
	<g>
		
			<linearGradient id="SVGID_1_" gradientUnits="userSpaceOnUse" x1="4857.5942" y1="5002.6318" x2="5781.1943" y2="5002.6318" gradientTransform="matrix(5.314525e-02 4.459416e-02 4.459416e-02 -5.314525e-02 -26.7887 571.6522)">
			<stop  offset="0" style="stop-color:#FCEE21"/>
			<stop  offset="1" style="stop-color:#ED1E79"/>
		</linearGradient>
		<path class="st1" d="M502.2,515.3c0.6,0.5,1,1.1,1.3,1.8l10.9,29.9c0.5,1.4,0.2,3.1-0.7,4.2l-20.4,24.4c-1,1.2-2.5,1.7-4,1.5
			l-31.3-5.5c-0.7-0.1-1.4-0.5-2-0.9c-0.6-0.5-1-1.1-1.3-1.8L443.8,539c-0.5-1.4-0.2-3.1,0.7-4.2l20.4-24.4c1-1.2,2.5-1.7,4-1.5
			l31.3,5.5C500.9,514.5,501.6,514.8,502.2,515.3 M502.3,515.2c-0.6-0.5-1.3-0.8-2.1-1l-31.3-5.5c-1.6-0.3-3.2,0.3-4.2,1.5
			l-20.4,24.4c-1,1.2-1.3,2.9-0.8,4.4l10.9,29.9c0.3,0.8,0.7,1.4,1.3,1.9s1.3,0.8,2.1,1l31.3,5.5c1.6,0.3,3.2-0.3,4.2-1.5l20.4-24.4
			c1-1.2,1.3-2.9,0.8-4.4l-10.9-29.9C503.4,516.3,502.9,515.7,502.3,515.2L502.3,515.2z"/>
	</g>
	<g>
		
			<linearGradient id="SVGID_2_" gradientUnits="userSpaceOnUse" x1="3643.0217" y1="5433.0991" x2="4566.7144" y2="5433.0991" gradientTransform="matrix(4.847191e-02 5.776658e-02 5.776658e-02 -4.847191e-02 -33.8766 569.1821)">
			<stop  offset="0" style="stop-color:#FCEE21"/>
			<stop  offset="1" style="stop-color:#ED1E79"/>
		</linearGradient>
		<path class="st2" d="M509.1,517.8c0.5,0.6,0.9,1.4,1,2.2l6,34c0.3,1.6-0.3,3.3-1.6,4.4L488,580.6c-1.3,1.1-3,1.4-4.6,0.8
			l-32.5-11.8c-0.8-0.3-1.5-0.8-2-1.4c-0.5-0.6-0.9-1.4-1-2.2l-6-34c-0.3-1.6,0.3-3.3,1.6-4.4l26.5-22.2c1.3-1.1,3-1.4,4.6-0.8
			l32.5,11.8C507.8,516.6,508.5,517.1,509.1,517.8 M509.2,517.6c-0.5-0.6-1.3-1.2-2.1-1.5l-32.5-11.8c-1.6-0.6-3.5-0.3-4.8,0.9
			l-26.5,22.2c-1.3,1.1-2,2.9-1.7,4.6l6,34c0.2,0.9,0.5,1.7,1.1,2.3s1.3,1.2,2.1,1.5l32.5,11.8c1.6,0.6,3.5,0.3,4.8-0.9l26.5-22.2
			c1.3-1.1,2-2.9,1.7-4.6l-6-34C510.2,519,509.8,518.3,509.2,517.6L509.2,517.6z"/>
	</g>
	<g>
		
			<linearGradient id="SVGID_3_" gradientUnits="userSpaceOnUse" x1="2474.6438" y1="5630.3198" x2="3398.6436" y2="5630.3198" gradientTransform="matrix(4.098310e-02 7.098482e-02 7.098482e-02 -4.098310e-02 -40.9975 565.2)">
			<stop  offset="0" style="stop-color:#FCEE21"/>
			<stop  offset="1" style="stop-color:#ED1E79"/>
		</linearGradient>
		<path class="st3" d="M515.9,521.7c0.4,0.8,0.7,1.7,0.7,2.5v37.6c0,1.8-1,3.5-2.5,4.4L481.5,585c-1.6,0.9-3.5,0.9-5.1,0l-32.5-18.8
			c-0.8-0.4-1.4-1.1-1.9-1.9c-0.4-0.8-0.7-1.7-0.7-2.5v-37.6c0-1.8,1-3.5,2.5-4.4l32.5-18.8c1.6-0.9,3.5-0.9,5.1,0l32.5,18.8
			C514.9,520.2,515.5,520.9,515.9,521.7 M516.2,521.5c-0.5-0.8-1.1-1.5-2-2l-32.5-18.8c-1.6-1-3.7-1-5.3,0l-32.5,18.8
			c-1.6,1-2.7,2.7-2.7,4.6v37.6c0,1,0.3,1.9,0.7,2.7s1.1,1.5,2,2l32.5,18.8c1.6,1,3.7,1,5.3,0l32.5-18.8c1.6-1,2.7-2.7,2.7-4.6
			v-37.6C516.9,523.2,516.6,522.3,516.2,521.5L516.2,521.5z"/>
	</g>
	<g>
		
			<linearGradient id="SVGID_4_" gradientUnits="userSpaceOnUse" x1="1385.1393" y1="5620.9009" x2="2308.947" y2="5620.9009" gradientTransform="matrix(3.047184e-02 8.372069e-02 8.372069e-02 -3.047184e-02 -47.8685 559.5934)">
			<stop  offset="0" style="stop-color:#FCEE21"/>
			<stop  offset="1" style="stop-color:#ED1E79"/>
		</linearGradient>
		<path class="st4" d="M522.6,527.1c0.3,0.9,0.4,1.9,0.2,2.9l-7.1,40.2c-0.3,1.9-1.7,3.6-3.6,4.2l-38.4,14c-1.9,0.7-3.9,0.3-5.4-1
			L437,561.2c-0.7-0.6-1.3-1.4-1.6-2.3c-0.3-0.9-0.4-1.9-0.2-2.9l7.1-40.2c0.3-1.9,1.7-3.6,3.6-4.2l38.4-14c1.9-0.7,3.9-0.3,5.4,1
			l31.3,26.2C521.7,525.4,522.2,526.2,522.6,527.1 M522.8,527c-0.3-0.9-0.9-1.8-1.7-2.5l-31.3-26.2c-1.6-1.3-3.8-1.7-5.7-1l-38.4,14
			c-1.9,0.7-3.4,2.4-3.7,4.4l-7.1,40.2c-0.2,1-0.1,2,0.3,3c0.3,0.9,0.9,1.8,1.7,2.5l31.3,26.2c1.6,1.3,3.8,1.7,5.7,1l38.4-14
			c1.9-0.7,3.4-2.4,3.7-4.4l7.1-40.2C523.3,529,523.2,528,522.8,527L522.8,527z"/>
	</g>
	<g>
		
			<linearGradient id="SVGID_5_" gradientUnits="userSpaceOnUse" x1="398.6079" y1="5438.7798" x2="1322.3752" y2="5438.7798" gradientTransform="matrix(1.681626e-02 9.536975e-02 9.536975e-02 -1.681626e-02 -54.1653 552.2951)">
			<stop  offset="0" style="stop-color:#FCEE21"/>
			<stop  offset="1" style="stop-color:#ED1E79"/>
		</linearGradient>
		<path class="st5" d="M528.6,534.2c0.2,1,0.1,2.1-0.3,3.1L513.2,579c-0.7,2-2.5,3.5-4.6,3.9l-43.7,7.7c-2.1,0.4-4.3-0.4-5.6-2.1
			l-28.5-34c-0.7-0.8-1.1-1.8-1.3-2.8c-0.2-1-0.1-2.1,0.3-3.1l15.2-41.7c0.7-2,2.5-3.5,4.6-3.9l43.7-7.7c2.1-0.4,4.3,0.4,5.6,2.1
			l28.5,34C528,532.2,528.4,533.2,528.6,534.2 M528.9,534.2c-0.2-1.1-0.7-2.1-1.4-3l-28.5-34c-1.4-1.7-3.7-2.5-5.9-2.2l-43.7,7.7
			c-2.2,0.4-4.1,1.9-4.8,4l-15.2,41.7c-0.4,1.1-0.5,2.2-0.3,3.2c0.2,1.1,0.7,2.1,1.4,3l28.5,34c1.4,1.7,3.7,2.5,5.9,2.2l43.7-7.7
			c2.2-0.4,4.1-1.9,4.8-4l15.2-41.7C529,536.4,529.1,535.2,528.9,534.2L528.9,534.2z"/>
	</g>
	<g>
		
			<linearGradient id="SVGID_6_" gradientUnits="userSpaceOnUse" x1="-464.5053" y1="5115.5664" x2="458.572" y2="5115.5664" gradientTransform="matrix(-6.938894e-18 0.1053 0.1053 6.938894e-18 -59.5692 543.3124)">
			<stop  offset="0" style="stop-color:#FCEE21"/>
			<stop  offset="1" style="stop-color:#ED1E79"/>
		</linearGradient>
		<path class="st6" d="M533.8,543c0,1.1-0.3,2.3-0.9,3.3L508.8,588c-1.2,2-3.3,3.3-5.7,3.3h-48.2c-2.3,0-4.5-1.3-5.7-3.3l-24.1-41.8
			c-0.6-1-0.9-2.1-0.9-3.3c0-1.1,0.3-2.3,0.9-3.3l24.1-41.8c1.2-2,3.3-3.3,5.7-3.3h48.2c2.3,0,4.5,1.3,5.7,3.3l24.1,41.8
			C533.5,540.7,533.8,541.8,533.8,543 M534.1,543c0-1.2-0.3-2.4-0.9-3.4l-24.1-41.8c-1.2-2.1-3.5-3.4-5.9-3.4H455
			c-2.4,0-4.7,1.3-5.9,3.4L425,539.6c-0.6,1.1-0.9,2.2-0.9,3.4s0.3,2.4,0.9,3.4l24.1,41.8c1.2,2.1,3.5,3.4,5.9,3.4h48.2
			c2.4,0,4.7-1.3,5.9-3.4l24.1-41.8C533.8,545.3,534.1,544.2,534.1,543L534.1,543z"/>
	</g>
	<g>
		
			<linearGradient id="SVGID_7_" gradientUnits="userSpaceOnUse" x1="-1196.2247" y1="4685.9292" x2="-272.4172" y2="4685.9292" gradientTransform="matrix(-1.986798e-02 0.1127 0.1127 1.986798e-02 -63.5946 532.6579)">
			<stop  offset="0" style="stop-color:#FCEE21"/>
			<stop  offset="1" style="stop-color:#ED1E79"/>
		</linearGradient>
		<path class="st7" d="M537.6,553.3c-0.2,1.2-0.8,2.4-1.6,3.3l-33.7,40.2c-1.6,1.9-4.2,2.9-6.7,2.4l-51.6-9.1
			c-2.5-0.4-4.6-2.2-5.4-4.6l-17.9-49.3c-0.4-1.2-0.5-2.4-0.3-3.7c0.2-1.2,0.8-2.4,1.6-3.3l33.7-40.2c1.6-1.9,4.2-2.9,6.7-2.4
			l51.6,9.1c2.5,0.4,4.6,2.2,5.4,4.6l17.9,49.3C537.7,550.8,537.9,552.1,537.6,553.3 M538,553.4c0.2-1.3,0.1-2.6-0.3-3.8l-17.9-49.3
			c-0.9-2.5-3.1-4.3-5.7-4.8l-51.6-9.1c-2.6-0.5-5.3,0.5-7,2.5l-33.7,40.2c-0.9,1-1.4,2.2-1.6,3.5s-0.1,2.6,0.3,3.8l17.9,49.3
			c0.9,2.5,3.1,4.3,5.7,4.8l51.6,9.1c2.6,0.5,5.3-0.5,7-2.5l33.7-40.2C537.2,555.9,537.8,554.6,538,553.4L538,553.4z"/>
	</g>
	<g>
		
			<linearGradient id="SVGID_8_" gradientUnits="userSpaceOnUse" x1="-1790.3376" y1="4178.0293" x2="-866.9213" y2="4178.0293" gradientTransform="matrix(-4.253509e-02 0.1169 0.1169 4.253509e-02 -65.925 520.5039)">
			<stop  offset="0" style="stop-color:#FCEE21"/>
			<stop  offset="1" style="stop-color:#ED1E79"/>
		</linearGradient>
		<path class="st8" d="M539.8,565.1c-0.5,1.3-1.3,2.4-2.3,3.3L493.9,605c-2.1,1.8-5,2.3-7.6,1.3l-53.6-19.5c-2.6-0.9-4.5-3.2-5-5.9
			l-9.9-56.1c-0.2-1.3-0.1-2.7,0.3-4c0.5-1.3,1.3-2.4,2.3-3.3l43.7-36.6c2.1-1.8,5-2.3,7.6-1.3l53.6,19.5c2.6,0.9,4.5,3.2,5,5.9
			l9.9,56.1C540.4,562.5,540.3,563.8,539.8,565.1 M540.2,565.2c0.5-1.3,0.6-2.7,0.4-4.2l-9.9-56.1c-0.5-2.8-2.5-5.2-5.2-6.2
			l-53.6-19.5c-2.7-1-5.8-0.5-8,1.4l-43.7,36.6c-1.1,0.9-1.9,2.1-2.4,3.4c-0.5,1.3-0.6,2.7-0.4,4.2l9.9,56.1
			c0.5,2.8,2.5,5.2,5.2,6.2l53.6,19.5c2.7,1,5.8,0.5,8-1.4l43.7-36.6C538.9,567.7,539.7,566.6,540.2,565.2L540.2,565.2z"/>
	</g>
	<g>
		
			<linearGradient id="SVGID_9_" gradientUnits="userSpaceOnUse" x1="-2247.2268" y1="3624.6824" x2="-1323.015" y2="3624.6824" gradientTransform="matrix(-6.758928e-02 0.1171 0.1171 6.758928e-02 -66.1054 507.0479)">
			<stop  offset="0" style="stop-color:#FCEE21"/>
			<stop  offset="1" style="stop-color:#ED1E79"/>
		</linearGradient>
		<path class="st9" d="M539.9,578.2c-0.7,1.3-1.8,2.3-3.1,3.1l-53.7,31c-2.6,1.5-5.8,1.5-8.4,0l-53.7-31c-2.6-1.5-4.2-4.3-4.2-7.3
			v-62c0-1.5,0.4-2.9,1.1-4.2c0.7-1.3,1.8-2.3,3.1-3.1l53.7-31c2.6-1.5,5.8-1.5,8.4,0l53.7,31c2.6,1.5,4.2,4.3,4.2,7.3v62
			C541,575.4,540.7,576.9,539.9,578.2 M540.3,578.4c0.8-1.3,1.2-2.8,1.2-4.4v-62c0-3.1-1.7-6-4.4-7.6l-53.7-31
			c-2.7-1.6-6.1-1.6-8.8,0l-53.7,31c-1.4,0.8-2.5,1.9-3.2,3.2c-0.8,1.3-1.2,2.8-1.2,4.4v62c0,3.1,1.7,6,4.4,7.6l53.7,31
			c2.7,1.6,6.1,1.6,8.8,0l53.7-31C538.4,580.8,539.5,579.7,540.3,578.4L540.3,578.4z"/>
	</g>
	<g>
		
			<linearGradient id="SVGID_10_" gradientUnits="userSpaceOnUse" x1="-2572.8091" y1="3049.2434" x2="-1649.3162" y2="3049.2434" gradientTransform="matrix(-9.444686e-02 0.1126 0.1126 9.444686e-02 -63.7753 492.6165)">
			<stop  offset="0" style="stop-color:#FCEE21"/>
			<stop  offset="1" style="stop-color:#ED1E79"/>
		</linearGradient>
		<path class="st10" d="M537.6,592.1c-1,1.2-2.4,2.2-3.9,2.7l-63.3,23c-3.1,1.1-6.5,0.5-9-1.6L409.9,573c-2.5-2.1-3.7-5.4-3.1-8.6
			l11.7-66.3c0.3-1.6,1-3.1,2-4.3c1-1.2,2.4-2.2,3.9-2.7l63.3-23c3.1-1.1,6.5-0.5,9,1.6l51.6,43.3c2.5,2.1,3.7,5.4,3.1,8.6
			l-11.7,66.3C539.3,589.4,538.6,590.9,537.6,592.1 M537.9,592.4c1.1-1.3,1.8-2.8,2.1-4.5l11.7-66.3c0.6-3.4-0.7-6.8-3.3-9
			l-51.6-43.3c-2.6-2.2-6.2-2.8-9.4-1.7l-63.3,23c-1.6,0.6-3,1.6-4.1,2.8c-1.1,1.3-1.8,2.8-2.1,4.5l-11.7,66.3
			c-0.6,3.4,0.7,6.8,3.3,9l51.6,43.3c2.6,2.2,6.2,2.8,9.4,1.7l63.3-23C535.5,594.7,536.9,593.7,537.9,592.4L537.9,592.4z"/>
	</g>
	<g>
		
			<linearGradient id="SVGID_11_" gradientUnits="userSpaceOnUse" x1="-2776.6465" y1="2477.3875" x2="-1852.5289" y2="2477.3875" gradientTransform="matrix(-0.1223 0.1027 0.1027 0.1223 -58.5196 477.6524)">
			<stop  offset="0" style="stop-color:#FCEE21"/>
			<stop  offset="1" style="stop-color:#ED1E79"/>
		</linearGradient>
		<path class="st11" d="M532.4,606.6c-1.3,1.1-2.9,1.9-4.6,2.2l-72.1,12.7c-3.5,0.6-7-0.7-9.3-3.4L399.3,562
			c-2.3-2.7-2.9-6.4-1.7-9.8l25-68.8c0.6-1.6,1.6-3.1,2.9-4.2s2.9-1.9,4.6-2.2l72.1-12.7c3.5-0.6,7,0.7,9.3,3.4l47.1,56.1
			c2.3,2.7,2.9,6.4,1.7,9.8l-25,68.8C534.8,604.1,533.8,605.5,532.4,606.6 M532.7,607c1.4-1.2,2.4-2.7,3.1-4.4l25-68.8
			c1.3-3.5,0.6-7.4-1.8-10.2l-47-56.1c-2.4-2.8-6.1-4.2-9.8-3.6l-72.1,12.7c-1.8,0.3-3.5,1.1-4.9,2.3c-1.4,1.2-2.4,2.7-3.1,4.4
			l-25,68.8c-1.3,3.5-0.6,7.4,1.8,10.2l47.1,56.1c2.4,2.8,6.1,4.2,9.8,3.6l72.1-12.7C529.7,609,531.4,608.2,532.7,607L532.7,607z"/>
	</g>
	<g>
		
			<linearGradient id="SVGID_12_" gradientUnits="userSpaceOnUse" x1="-2869.4585" y1="1925.8792" x2="-1945.3015" y2="1925.8792" gradientTransform="matrix(-0.1503 8.679893e-02 8.679893e-02 0.1503 -50.0447 462.5462)">
			<stop  offset="0" style="stop-color:#FCEE21"/>
			<stop  offset="1" style="stop-color:#ED1E79"/>
		</linearGradient>
		<path class="st12" d="M524.2,621.2c-1.6,0.9-3.5,1.4-5.4,1.4h-79.6c-3.8,0-7.4-2.1-9.3-5.4l-39.8-68.9c-1.9-3.3-1.9-7.4,0-10.8
			l39.8-68.9c0.9-1.6,2.3-3,3.9-3.9s3.5-1.4,5.4-1.4h79.6c3.8,0,7.4,2.1,9.3,5.4l39.8,68.9c1.9,3.3,1.9,7.4,0,10.8l-39.8,68.9
			C527.2,618.9,525.8,620.3,524.2,621.2 M524.4,621.7c1.7-1,3.1-2.4,4.1-4.1l39.8-68.9c2-3.5,2-7.8,0-11.3l-39.8-68.9
			c-2-3.5-5.7-5.6-9.8-5.6h-79.6c-2,0-4,0.5-5.6,1.5s-3.1,2.4-4.1,4.1l-39.8,68.9c-2,3.5-2,7.8,0,11.3l39.8,68.9
			c2,3.5,5.7,5.6,9.8,5.6h79.6C520.8,623.2,522.7,622.6,524.4,621.7L524.4,621.7z"/>
	</g>
	<g>
		
			<linearGradient id="SVGID_13_" gradientUnits="userSpaceOnUse" x1="-2865.4597" y1="1410.8472" x2="-1941.4274" y2="1410.8472" gradientTransform="matrix(-0.1773 6.453692e-02 6.453692e-02 0.1773 -38.1832 447.9654)">
			<stop  offset="0" style="stop-color:#FCEE21"/>
			<stop  offset="1" style="stop-color:#ED1E79"/>
		</linearGradient>
		<path class="st13" d="M512.6,635.3c-1.9,0.7-4,0.9-6,0.5l-85.2-15c-4.1-0.7-7.5-3.6-9-7.5L382.8,532c-1.4-3.9-0.6-8.3,2-11.5
			l55.6-66.3c1.3-1.6,3-2.8,5-3.5c1.9-0.7,4-0.9,6-0.5l85.2,15c4.1,0.7,7.5,3.6,9,7.5l29.6,81.3c1.4,3.9,0.6,8.3-2,11.5l-55.6,66.3
			C516.2,633.3,514.5,634.6,512.6,635.3 M512.8,635.8c2-0.7,3.8-2,5.2-3.6l55.6-66.3c2.8-3.4,3.6-8,2.1-12.1l-29.6-81.3
			c-1.5-4.1-5.1-7.1-9.4-7.9l-85.2-15c-2.2-0.4-4.3-0.2-6.3,0.6c-2,0.7-3.8,2-5.2,3.6l-55.6,66.3c-2.8,3.4-3.6,8-2.1,12.1l29.6,81.3
			c1.5,4.1,5.1,7.1,9.4,7.9l85.2,15C508.6,636.7,510.8,636.5,512.8,635.8L512.8,635.8z"/>
	</g>
	<g>
		
			<linearGradient id="SVGID_14_" gradientUnits="userSpaceOnUse" x1="-2779.3511" y1="945.1961" x2="-1855.0632" y2="945.1961" gradientTransform="matrix(-0.202 3.561549e-02 3.561549e-02 0.202 -22.7394 434.5989)">
			<stop  offset="0" style="stop-color:#FCEE21"/>
			<stop  offset="1" style="stop-color:#ED1E79"/>
		</linearGradient>
		<path class="st14" d="M497.5,648.1c-2.2,0.4-4.5,0.2-6.6-0.6l-88.3-32.2c-4.3-1.6-7.4-5.3-8.2-9.7L378.1,513
			c-0.8-4.5,0.9-9,4.4-12l72-60.4c1.7-1.4,3.8-2.4,6-2.8s4.5-0.2,6.6,0.6l88.3,32.2c4.3,1.6,7.4,5.3,8.2,9.7l16.3,92.6
			c0.8,4.5-0.9,9-4.4,12l-72,60.4C501.8,646.7,499.7,647.7,497.5,648.1 M497.6,648.7c2.3-0.4,4.4-1.4,6.3-2.9l72-60.4
			c3.7-3.1,5.4-7.8,4.6-12.5l-16.3-92.6c-0.8-4.7-4.1-8.6-8.6-10.2l-88.3-32.2c-2.2-0.8-4.6-1-6.9-0.6s-4.4,1.4-6.3,2.9l-72,60.4
			c-3.7,3.1-5.4,7.8-4.6,12.5l16.3,92.6c0.8,4.7,4.1,8.6,8.6,10.2l88.3,32.2C493,648.9,495.4,649.1,497.6,648.7L497.6,648.7z"/>
	</g>
	<g>
		
			<linearGradient id="SVGID_15_" gradientUnits="userSpaceOnUse" x1="-2627.8665" y1="537.0305" x2="-1703.8667" y2="537.0305" gradientTransform="matrix(-0.2229 0 0 0.2229 -3.6515 423.2959)">
			<stop  offset="0" style="stop-color:#FCEE21"/>
			<stop  offset="1" style="stop-color:#ED1E79"/>
		</linearGradient>
		<path class="st15" d="M479,659c-2.4,0-4.8-0.6-6.9-1.9L383.6,606c-4.3-2.5-6.9-7.1-6.9-12V491.9c0-4.9,2.7-9.5,6.9-12l88.5-51.1
			c2.1-1.2,4.5-1.9,6.9-1.9s4.8,0.6,6.9,1.9l88.5,51.1c4.3,2.5,6.9,7.1,6.9,12v102.2c0,4.9-2.7,9.5-6.9,12l-88.5,51.1
			C483.8,658.4,481.4,659,479,659 M479,659.7c2.5,0,5-0.6,7.3-1.9l88.5-51.1c4.5-2.6,7.3-7.4,7.3-12.6V491.9c0-5.2-2.8-10-7.3-12.6
			l-88.5-51.1c-2.2-1.3-4.7-1.9-7.3-1.9s-5,0.6-7.3,1.9l-88.5,51.1c-4.5,2.6-7.3,7.4-7.3,12.6v102.2c0,5.2,2.8,10,7.3,12.6
			l88.5,51.1C474,659,476.5,659.7,479,659.7L479,659.7z"/>
	</g>
	<g>
		
			<linearGradient id="SVGID_16_" gradientUnits="userSpaceOnUse" x1="-2424.1575" y1="191.5087" x2="-1500.0505" y2="191.5087" gradientTransform="matrix(-0.2386 -4.207880e-02 -4.207880e-02 0.2386 18.9008 414.7408)">
			<stop  offset="0" style="stop-color:#FCEE21"/>
			<stop  offset="1" style="stop-color:#ED1E79"/>
		</linearGradient>
		<path class="st16" d="M457.1,667.2c-2.6-0.5-5-1.6-7.1-3.3l-85-71.4c-4.1-3.4-6.1-8.9-5.1-14.1L379.1,469
			c0.9-5.3,4.6-9.7,9.7-11.5l104.4-38c2.5-0.9,5.2-1.1,7.8-0.7c2.6,0.5,5,1.6,7.1,3.3l85.1,71.4c4.1,3.4,6.1,8.9,5.1,14.1L578.9,617
			c-0.9,5.3-4.6,9.7-9.7,11.5l-104.4,38C462.4,667.4,459.7,667.6,457.1,667.2 M457,667.9c2.7,0.5,5.5,0.3,8.1-0.7l104.4-38
			c5.3-1.9,9.2-6.5,10.1-12.1l19.3-109.4c1-5.5-1.1-11.2-5.4-14.8l-85.1-71.4c-2.2-1.8-4.7-3-7.4-3.4c-2.7-0.5-5.5-0.3-8.1,0.7
			l-104.4,38c-5.3,1.9-9.2,6.5-10.1,12.1l-19.3,109.4c-1,5.5,1.1,11.2,5.4,14.8l85.1,71.4C451.7,666.2,454.3,667.4,457,667.9
			L457,667.9z"/>
	</g>
	<g>
		
			<linearGradient id="SVGID_17_" gradientUnits="userSpaceOnUse" x1="-2184.6912" y1="-88.9506" x2="-1260.5769" y2="-88.9506" gradientTransform="matrix(-0.2475 -9.008592e-02 -9.008592e-02 0.2475 44.6398 409.8001)">
			<stop  offset="0" style="stop-color:#FCEE21"/>
			<stop  offset="1" style="stop-color:#ED1E79"/>
		</linearGradient>
		<path class="st17" d="M432.1,671.8c-2.7-1-5.1-2.7-6.9-4.9l-77.6-92.5c-3.7-4.5-4.8-10.6-2.8-16.1L386,444.9
			c2-5.5,6.8-9.5,12.5-10.5l118.9-21c2.8-0.5,5.7-0.2,8.4,0.7c2.7,1,5.1,2.7,6.9,4.9l77.6,92.5c3.7,4.5,4.8,10.6,2.8,16.1L572,641.1
			c-2,5.5-6.8,9.5-12.5,10.5l-118.9,21C437.7,673,434.8,672.8,432.1,671.8 M431.8,672.5c2.8,1,5.8,1.3,8.8,0.8l118.9-21
			c6-1.1,11-5.3,13.1-11L614,527.9c2.1-5.8,1-12.2-3-16.9l-77.6-92.5c-2-2.3-4.5-4.1-7.3-5.1s-5.8-1.3-8.8-0.8l-118.9,21
			c-6,1.1-11,5.3-13.1,11L344,558.1c-2.1,5.8-1,12.2,3,16.9l77.6,92.5C426.6,669.8,429.1,671.5,431.8,672.5L431.8,672.5z"/>
	</g>
	<g>
		
			<linearGradient id="SVGID_18_" gradientUnits="userSpaceOnUse" x1="-1923.4572" y1="-304.9094" x2="-999.2567" y2="-304.9094" gradientTransform="matrix(-0.2479 -0.1431 -0.1431 0.2479 73.0971 409.4668)">
			<stop  offset="0" style="stop-color:#FCEE21"/>
			<stop  offset="1" style="stop-color:#ED1E79"/>
		</linearGradient>
		<path class="st18" d="M404.5,672c-2.7-1.6-4.9-3.8-6.5-6.5l-65.6-113.6c-3.2-5.5-3.2-12.3,0-17.8L398,420.5
			c3.2-5.5,9.1-8.9,15.4-8.9h131.2c3.1,0,6.2,0.8,8.9,2.4s4.9,3.8,6.5,6.5l65.6,113.6c3.2,5.5,3.2,12.3,0,17.8L560,665.5
			c-3.2,5.5-9.1,8.9-15.4,8.9H413.4C410.3,674.4,407.2,673.6,404.5,672 M404.1,672.8c2.8,1.6,6,2.5,9.3,2.5h131.2
			c6.7,0,12.8-3.5,16.1-9.3l65.6-113.6c3.3-5.8,3.3-12.9,0-18.6L560.7,420c-1.7-2.9-4-5.2-6.8-6.8c-2.8-1.6-6-2.5-9.3-2.5H413.4
			c-6.7,0-12.8,3.5-16.1,9.3l-65.6,113.6c-3.3,5.8-3.3,12.9,0,18.6l65.6,113.6C398.9,668.8,401.3,671.1,404.1,672.8L404.1,672.8z"/>
	</g>
	<g>
		
			<linearGradient id="SVGID_19_" gradientUnits="userSpaceOnUse" x1="-1651.868" y1="-458.3812" x2="-727.603" y2="-458.3812" gradientTransform="matrix(-0.2384 -0.2 -0.2 0.2384 103.6662 414.3603)">
			<stop  offset="0" style="stop-color:#FCEE21"/>
			<stop  offset="1" style="stop-color:#ED1E79"/>
		</linearGradient>
		<path class="st19" d="M374.9,667c-2.6-2.2-4.6-5-5.7-8.2l-48.8-134c-2.4-6.5-1.1-13.7,3.4-19l91.7-109.3
			c4.4-5.3,11.4-7.8,18.1-6.6L574,414.7c3.3,0.6,6.5,2,9.1,4.2s4.6,5,5.7,8.2l48.8,134c2.4,6.5,1.1,13.7-3.4,19l-91.7,109.3
			c-4.4,5.3-11.4,7.8-18.1,6.6L384,671.3C380.6,670.7,377.5,669.2,374.9,667 M374.3,667.8c2.7,2.2,5.9,3.8,9.5,4.4L524.3,697
			c7.1,1.3,14.4-1.4,19-6.9L635,580.8c4.6-5.5,6-13.1,3.5-19.9l-48.8-134c-1.2-3.4-3.3-6.3-6-8.6c-2.7-2.2-5.9-3.8-9.5-4.4
			L433.7,389c-7.1-1.3-14.4,1.4-19,6.9L323,505.2c-4.6,5.5-6,13.1-3.5,19.9l48.8,134C369.5,662.6,371.6,665.5,374.3,667.8
			L374.3,667.8z"/>
	</g>
	<g>
		
			<linearGradient id="SVGID_20_" gradientUnits="userSpaceOnUse" x1="-1381.0155" y1="-554.8832" x2="-456.9468" y2="-554.8832" gradientTransform="matrix(-0.2174 -0.2591 -0.2591 0.2174 135.4927 425.474)">
			<stop  offset="0" style="stop-color:#FCEE21"/>
			<stop  offset="1" style="stop-color:#ED1E79"/>
		</linearGradient>
		<path class="st20" d="M344.2,656.1c-2.4-2.8-4-6.2-4.6-9.8l-26.9-152.7c-1.3-7.4,1.5-14.9,7.2-19.7l118.8-99.7
			c5.7-4.8,13.6-6.2,20.7-3.6l145.7,53c3.5,1.3,6.5,3.4,8.9,6.2c2.4,2.8,4,6.2,4.6,9.8l26.9,152.7c1.3,7.4-1.5,14.9-7.2,19.7
			l-118.8,99.7c-5.7,4.8-13.6,6.2-20.7,3.6l-145.7-53C349.6,661.1,346.5,658.9,344.2,656.1 M343.4,656.8c2.4,2.9,5.6,5.2,9.3,6.5
			l145.7,53c7.4,2.7,15.6,1.2,21.7-3.8l118.8-99.7c6-5.1,8.9-12.9,7.5-20.7l-26.9-152.7c-0.7-3.9-2.4-7.4-4.8-10.3
			c-2.4-2.9-5.6-5.2-9.3-6.5l-145.7-53c-7.4-2.7-15.6-1.2-21.7,3.8l-118.8,99.7c-6,5.1-8.9,12.9-7.5,20.7l26.9,152.7
			C339.2,650.3,340.9,653.9,343.4,656.8L343.4,656.8z"/>
	</g>
	<g>
		
			<linearGradient id="SVGID_21_" gradientUnits="userSpaceOnUse" x1="-1120.5078" y1="-598.4044" x2="-196.3182" y2="-598.4044" gradientTransform="matrix(-0.1838 -0.3184 -0.3184 0.1838 167.4475 443.3405)">
			<stop  offset="0" style="stop-color:#FCEE21"/>
			<stop  offset="1" style="stop-color:#ED1E79"/>
		</linearGradient>
		<path class="st21" d="M313.3,638.6c-2-3.5-3.1-7.4-3.1-11.4V458.7c0-8.1,4.4-15.7,11.4-19.8l145.9-84.3c7-4.1,15.8-4.1,22.8,0
			L636.4,439c3.5,2,6.4,4.9,8.4,8.4s3.1,7.4,3.1,11.4v168.5c0,8.1-4.4,15.7-11.4,19.8l-145.9,84.3c-7,4.1-15.8,4.1-22.8,0L321.6,647
			C318.2,645,315.3,642.1,313.3,638.6 M312.3,639.2c2.1,3.6,5.1,6.6,8.8,8.8L467,732.2c7.4,4.3,16.5,4.3,23.9,0l146-84.2
			c7.4-4.3,12-12.2,12-20.7V458.8c0-4.3-1.1-8.4-3.2-12s-5.1-6.6-8.8-8.8L491,353.7c-7.4-4.3-16.5-4.3-23.9,0l-146,84.3
			c-7.4,4.3-12,12.2-12,20.7v168.5C309.1,631.5,310.3,635.6,312.3,639.2L312.3,639.2z"/>
	</g>
	<g>
		
			<linearGradient id="SVGID_22_" gradientUnits="userSpaceOnUse" x1="-877.4512" y1="-596.2524" x2="46.4321" y2="-596.2524" gradientTransform="matrix(-0.1367 -0.3755 -0.3755 0.1367 198.214 468.4496)">
			<stop  offset="0" style="stop-color:#FCEE21"/>
			<stop  offset="1" style="stop-color:#ED1E79"/>
		</linearGradient>
		<path class="st22" d="M283.6,614.1c-1.5-4.1-1.9-8.5-1.1-12.8l31.8-180.4c1.5-8.7,7.6-16,15.9-19l172.1-62.6
			c8.3-3,17.7-1.4,24.4,4.3L667,461.3c3.3,2.8,5.9,6.4,7.4,10.5s1.9,8.5,1.1,12.8L643.7,665c-1.5,8.7-7.6,16-15.9,19l-172.1,62.6
			c-8.3,3-17.7,1.4-24.4-4.3L290.9,624.6C287.6,621.8,285.1,618.2,283.6,614.1 M282.4,614.5c1.5,4.2,4.2,8,7.7,11l140.3,117.7
			c7.1,6,16.9,7.7,25.6,4.5l172.1-62.6c8.7-3.2,15.1-10.8,16.7-19.9l31.8-180.4c0.8-4.6,0.4-9.2-1.2-13.4c-1.5-4.2-4.2-8-7.7-11
			L527.5,342.7c-7.1-6-16.9-7.7-25.6-4.5l-172.1,62.6c-8.7,3.2-15.1,10.8-16.7,19.9l-31.8,180.4
			C280.5,605.7,280.9,610.3,282.4,614.5L282.4,614.5z"/>
	</g>
	<g>
		
			<linearGradient id="SVGID_23_" gradientUnits="userSpaceOnUse" x1="-657.9249" y1="-555.7896" x2="266.4242" y2="-555.7896" gradientTransform="matrix(-7.543077e-02 -0.4278 -0.4278 7.543077e-02 226.5174 501.1817)">
			<stop  offset="0" style="stop-color:#FCEE21"/>
			<stop  offset="1" style="stop-color:#ED1E79"/>
		</linearGradient>
		<path class="st23" d="M256.4,582.2c-0.8-4.7-0.4-9.5,1.2-13.9l68.1-187.1c3.3-9,11.2-15.7,20.6-17.3l196.1-34.6
			c9.5-1.7,19.2,1.9,25.3,9.2l128,152.5c3,3.6,5.1,8,5.9,12.6c0.8,4.7,0.4,9.5-1.2,13.9l-68.1,187.1c-3.3,9-11.2,15.7-20.6,17.3
			l-196.1,34.6c-9.5,1.7-19.2-1.9-25.3-9.2l-128-152.5C259.2,591.3,257.2,586.9,256.4,582.2 M255.1,582.5c0.8,4.8,2.9,9.4,6.2,13.3
			l128,152.5c6.5,7.7,16.6,11.4,26.6,9.7L612,723.4c9.9-1.8,18.2-8.7,21.6-18.2l68.1-187.1c1.7-4.7,2.1-9.8,1.3-14.6
			c-0.8-4.8-2.9-9.4-6.2-13.3l-128-152.5c-6.5-7.7-16.6-11.4-26.6-9.7l-196.1,34.6c-9.9,1.8-18.2,8.7-21.6,18.2l-68.1,187.1
			C254.6,572.6,254.2,577.7,255.1,582.5L255.1,582.5z"/>
	</g>
	<g>
		
			<linearGradient id="SVGID_24_" gradientUnits="userSpaceOnUse" x1="-465.1779" y1="-483.688" x2="459.0069" y2="-483.688" gradientTransform="matrix(0 -0.4722 -0.4722 0 250.6025 541.5431)">
			<stop  offset="0" style="stop-color:#FCEE21"/>
			<stop  offset="1" style="stop-color:#ED1E79"/>
		</linearGradient>
		<path class="st24" d="M233.3,543c0-5.1,1.4-10.2,3.9-14.6L345.4,341c5.2-9,14.9-14.6,25.4-14.6h216.4c10.4,0,20.2,5.6,25.4,14.6
			l108.2,187.4c2.6,4.4,3.9,9.5,3.9,14.6s-1.4,10.2-3.9,14.6L612.6,745.1c-5.2,9-14.9,14.6-25.4,14.6H370.8
			c-10.4,0-20.2-5.6-25.4-14.6L237.2,557.6C234.6,553.2,233.3,548.1,233.3,543 M231.9,543c0,5.3,1.4,10.6,4.1,15.4l108.2,187.4
			c5.5,9.5,15.6,15.4,26.6,15.4h216.4c11,0,21.1-5.9,26.6-15.4L722,558.3c2.7-4.8,4.1-10.1,4.1-15.4s-1.4-10.6-4.1-15.4L613.8,340.2
			c-5.5-9.5-15.6-15.4-26.6-15.4H370.8c-11,0-21.1,5.9-26.6,15.4L236,527.6C233.2,532.4,231.9,537.7,231.9,543L231.9,543z"/>
	</g>
	<g>
		
			<linearGradient id="SVGID_25_" gradientUnits="userSpaceOnUse" x1="-301.9412" y1="-388.1202" x2="622.364" y2="-388.1202" gradientTransform="matrix(8.911952e-02 -0.5054 -0.5054 -8.911952e-02 268.6661 589.3317)">
			<stop  offset="0" style="stop-color:#FCEE21"/>
			<stop  offset="1" style="stop-color:#ED1E79"/>
		</linearGradient>
		<path class="st25" d="M216,496.6c1-5.5,3.4-10.7,7-14.9l151.2-180.2c7.3-8.7,18.8-12.9,29.9-10.9l231.7,40.8
			c11.2,2,20.5,9.8,24.4,20.5L740.7,573c1.9,5.2,2.4,10.9,1.4,16.4s-3.4,10.7-7,14.9L583.9,784.5c-7.3,8.7-18.8,12.9-29.9,10.9
			l-231.7-40.8c-11.2-2-20.5-9.8-24.4-20.5L217.4,513C215.5,507.8,215,502.1,216,496.6 M214.5,496.3c-1,5.7-0.5,11.6,1.5,17.2
			l80.5,221.1c4.1,11.2,13.8,19.4,25.6,21.5l231.7,40.8c11.7,2.1,23.7-2.3,31.4-11.4l151.2-180.2c3.8-4.6,6.3-10,7.3-15.7
			s0.5-11.6-1.5-17.2l-80.5-221.1c-4.1-11.2-13.8-19.4-25.6-21.5L404.3,289c-11.7-2.1-23.7,2.3-31.4,11.4L221.8,480.7
			C217.9,485.2,215.5,490.7,214.5,496.3L214.5,496.3z"/>
	</g>
	<g>
		
			<linearGradient id="SVGID_26_" gradientUnits="userSpaceOnUse" x1="-169.4784" y1="-274.8878" x2="754.5883" y2="-274.8878" gradientTransform="matrix(0.1908 -0.5242 -0.5242 -0.1908 279.0792 643.8743)">
			<stop  offset="0" style="stop-color:#FCEE21"/>
			<stop  offset="1" style="stop-color:#ED1E79"/>
		</linearGradient>
		<path class="st26" d="M206.2,443.7c2.1-5.7,5.6-10.8,10.3-14.7l195.9-164.4c9.4-7.9,22.5-10.2,34.1-6l240.3,87.5
			c11.6,4.2,20.1,14.4,22.3,26.5l44.4,251.8c1.1,6,0.5,12.1-1.6,17.9c-2.1,5.7-5.6,10.8-10.3,14.7L545.7,821.3
			c-9.4,7.9-22.5,10.2-34.1,6l-240.3-87.5c-11.6-4.2-20.1-14.4-22.3-26.5l-44.4-251.8C203.6,455.6,204.1,449.4,206.2,443.7
			 M204.6,443.1c-2.1,5.9-2.8,12.3-1.6,18.7l44.4,251.8c2.3,12.8,11.1,23.4,23.3,27.8L511,828.9c12.2,4.4,25.8,2,35.7-6.3
			l195.9-164.4c5-4.2,8.6-9.5,10.8-15.4s2.8-12.3,1.6-18.7l-44.4-251.8c-2.3-12.8-11.1-23.4-23.3-27.8L447,257.1
			c-12.2-4.4-25.8-2-35.7,6.3L215.4,427.7C210.4,431.9,206.8,437.2,204.6,443.1L204.6,443.1z"/>
	</g>
	<g>
		
			<linearGradient id="SVGID_27_" gradientUnits="userSpaceOnUse" x1="-67.5843" y1="-151.2376" x2="856.4033" y2="-151.2376" gradientTransform="matrix(0.3032 -0.5251 -0.5251 -0.3032 279.9002 704.2492)">
			<stop  offset="0" style="stop-color:#FCEE21"/>
			<stop  offset="1" style="stop-color:#ED1E79"/>
		</linearGradient>
		<path class="st27" d="M205.7,385.2c3.3-5.7,8.1-10.5,13.8-13.8l240.7-139c11.6-6.7,26-6.7,37.6,0l240.7,139
			c11.6,6.7,18.8,19.2,18.8,32.6v277.9c0,6.6-1.7,13.1-5,18.8s-8.1,10.5-13.8,13.8l-240.7,139c-11.6,6.7-26,6.7-37.6,0l-240.7-139
			c-11.6-6.7-18.8-19.2-18.8-32.6V404C200.7,397.4,202.4,390.9,205.7,385.2 M204.1,384.3c-3.4,5.9-5.3,12.7-5.3,19.7v277.9
			c0,14.1,7.5,27.1,19.7,34.2l240.7,139c12.2,7,27.2,7,39.4,0l240.7-139c6.1-3.5,11-8.5,14.4-14.4S759,689,759,682V404.1
			c0-14.1-7.5-27.1-19.7-34.2l-240.7-139c-12.2-7-27.2-7-39.4,0l-240.7,139C212.5,373.4,207.6,378.4,204.1,384.3L204.1,384.3z"/>
	</g>
	<g>
		
			<linearGradient id="SVGID_28_" gradientUnits="userSpaceOnUse" x1="5.0249" y1="-23.2778" x2="929.1113" y2="-23.2778" gradientTransform="matrix(0.4236 -0.5049 -0.5049 -0.4236 269.397 768.9122)">
			<stop  offset="0" style="stop-color:#FCEE21"/>
			<stop  offset="1" style="stop-color:#ED1E79"/>
		</linearGradient>
		<path class="st28" d="M216.3,322.5c4.6-5.5,10.6-9.7,17.3-12.1L517.5,207c13.7-5,29.1-2.3,40.3,7.1l231.4,194.2
			c11.2,9.4,16.5,24.1,14,38.4l-52.5,297.5c-1.2,7.1-4.3,13.7-8.9,19.2c-4.6,5.5-10.6,9.7-17.3,12.1l-284,103.4
			c-13.7,5-29.1,2.3-40.3-7.1L168.8,677.6c-11.2-9.4-16.5-24.1-14-38.4l52.5-297.5C208.6,334.6,211.6,328,216.3,322.5 M214.7,321.2
			c-4.8,5.7-8,12.6-9.4,20.1l-52.5,297.5c-2.7,15.1,2.9,30.4,14.7,40.3L399,873.3c11.7,9.8,27.8,12.7,42.2,7.4l283.9-103.3
			c7.2-2.6,13.4-7.1,18.2-12.7c4.8-5.7,8-12.6,9.4-20.1l52.5-297.5c2.7-15.1-2.9-30.4-14.7-40.3L559,212.6
			c-11.7-9.8-27.8-12.7-42.2-7.4L232.9,308.5C225.7,311.1,219.5,315.6,214.7,321.2L214.7,321.2z"/>
	</g>
	<g>
		
			<linearGradient id="SVGID_29_" gradientUnits="userSpaceOnUse" x1="50.3237" y1="104.5492" x2="974.491" y2="104.5492" gradientTransform="matrix(0.5488 -0.4605 -0.4605 -0.5488 245.9564 836.3148)">
			<stop  offset="0" style="stop-color:#FCEE21"/>
			<stop  offset="1" style="stop-color:#ED1E79"/>
		</linearGradient>
		<path class="st29" d="M239.4,257.4c6-5,13.2-8.4,20.9-9.7l323.4-57c15.6-2.7,31.6,3.1,41.8,15.2l211.1,251.5
			c10.2,12.1,13.1,28.9,7.7,43.8L731.8,809.7c-2.7,7.3-7.2,13.8-13.2,18.8s-13.2,8.4-20.9,9.7l-323.4,57
			c-15.6,2.7-31.6-3.1-41.8-15.2L121.6,628.6c-10.2-12.1-13.1-28.9-7.7-43.8l112.3-308.6C228.8,268.9,233.4,262.4,239.4,257.4
			 M238,255.7c-6.2,5.2-11,11.9-13.8,19.8L111.8,584.1c-5.7,15.6-2.6,33.1,8.1,45.9L331,881.5c10.7,12.8,27.4,18.8,43.8,15.9
			l323.4-57c8.2-1.4,15.7-5,21.9-10.2s11-11.9,13.8-19.8l112.3-308.6c5.7-15.6,2.6-33.1-8.1-45.9L627,204.5
			c-10.7-12.8-27.4-18.8-43.8-15.9l-323.4,57C251.6,247,244.1,250.6,238,255.7L238,255.7z"/>
	</g>
	<g>
		
			<linearGradient id="SVGID_30_" gradientUnits="userSpaceOnUse" x1="71.0222" y1="227.5856" x2="995.106" y2="227.5856" gradientTransform="matrix(0.6744 -0.3893 -0.3893 -0.6744 208.0793 904.0186)">
			<stop  offset="0" style="stop-color:#FCEE21"/>
			<stop  offset="1" style="stop-color:#ED1E79"/>
		</linearGradient>
		<path class="st30" d="M276.4,192c7.3-4.2,15.7-6.5,24.2-6.5h356.9c17.2,0,33.2,9.3,41.8,24.2l178.5,309.1
			c8.6,14.9,8.6,33.4,0,48.3L699.3,876.2c-4.2,7.3-10.4,13.5-17.7,17.7s-15.7,6.5-24.2,6.5H300.5c-17.2,0-33.2-9.3-41.8-24.2
			L80.2,567.1c-8.6-14.9-8.6-33.4,0-48.3l178.5-309.1C262.9,202.4,269,196.3,276.4,192 M275.2,190c-7.6,4.4-14,10.7-18.5,18.5
			L78.2,517.7c-9,15.7-9,35,0,50.7l178.5,309.1c9,15.7,25.8,25.3,43.9,25.3h356.9c9,0,17.8-2.4,25.3-6.8s14-10.7,18.5-18.5
			l178.5-309.1c9-15.7,9-35,0-50.7L701.3,208.6c-9-15.7-25.8-25.3-43.9-25.3H300.5C291.5,183.2,282.8,185.6,275.2,190L275.2,190z"/>
	</g>
	<g>
		
			<linearGradient id="SVGID_31_" gradientUnits="userSpaceOnUse" x1="70.1105" y1="342.2495" x2="994.1269" y2="342.2495" gradientTransform="matrix(0.7954 -0.2895 -0.2895 -0.7954 154.8828 969.274)">
			<stop  offset="0" style="stop-color:#FCEE21"/>
			<stop  offset="1" style="stop-color:#ED1E79"/>
		</linearGradient>
		<path class="st31" d="M328.3,129.1c8.7-3.1,18-4,27.1-2.4l382.1,67.4c18.4,3.2,33.8,16.2,40.2,33.8l132.7,364.6
			c6.4,17.6,2.9,37.4-9.1,51.7L651.9,941.3c-5.9,7.1-13.6,12.4-22.3,15.6c-8.7,3.1-18,4-27.1,2.4l-382.1-67.4
			c-18.4-3.2-33.8-16.2-40.2-33.8L47.6,493.6c-6.4-17.6-2.9-37.4,9.1-51.7l249.4-297.2C312,137.6,319.7,132.2,328.3,129.1
			 M327.5,126.7c-8.9,3.3-17,8.8-23.3,16.3L54.8,440.2c-12.6,15.1-16.3,35.7-9.6,54.2L177.9,859c6.7,18.5,22.8,32,42.2,35.4
			l382.1,67.4c9.7,1.7,19.5,0.8,28.4-2.5s17-8.8,23.3-16.3l249.4-297.2c12.6-15.1,16.3-35.7,9.6-54.2L780.1,227
			c-6.7-18.5-22.8-32-42.2-35.4l-382.1-67.4C346.2,122.5,336.4,123.4,327.5,126.7L327.5,126.7z"/>
	</g>
	<g>
		
			<linearGradient id="SVGID_32_" gradientUnits="userSpaceOnUse" x1="50.8912" y1="446.0047" x2="975.0667" y2="446.0047" gradientTransform="matrix(0.906 -0.1598 -0.1598 -0.906 85.5467 1029.0071)">
			<stop  offset="0" style="stop-color:#FCEE21"/>
			<stop  offset="1" style="stop-color:#ED1E79"/>
		</linearGradient>
		<path class="st32" d="M395.9,71.5c9.9-1.7,20-0.8,29.4,2.6l396.3,144.2c19.1,7,33.2,23.7,36.7,43.7l73.2,415.3
			c3.5,20-4,40.6-19.5,53.6L589,1002c-7.7,6.4-16.9,10.8-26.8,12.5c-9.9,1.7-20,0.8-29.4-2.6L136.4,867.7
			c-19.1-7-33.2-23.7-36.7-43.7L26.5,408.7c-3.5-20,4-40.6,19.5-53.6L369.1,84C376.7,77.5,386,73.2,395.9,71.5 M395.4,68.8
			c-10.2,1.8-19.9,6.2-28.1,13.1L44.3,353c-16.4,13.7-24.2,35.2-20.5,56.2L97,824.4c3.7,21.1,18.4,38.5,38.5,45.8l396.3,144.2
			c10,3.7,20.7,4.5,30.9,2.7s19.9-6.2,28.1-13.1l323-271.1c16.4-13.7,24.2-35.2,20.5-56.2L861,261.5c-3.7-21.1-18.4-38.5-38.5-45.8
			L426.2,71.5C416.2,67.8,405.6,67,395.4,68.8L395.4,68.8z"/>
	</g>
	<g>
		
			<linearGradient id="SVGID_33_" gradientUnits="userSpaceOnUse" x1="17" y1="537.0001" x2="940.8" y2="537.0001" gradientTransform="matrix(1 0 0 -1 0 1080)">
			<stop  offset="0" style="stop-color:#FCEE21"/>
			<stop  offset="1" style="stop-color:#ED1E79"/>
		</linearGradient>
		<path class="st33" d="M479,22.6c10.9,0,21.6,2.9,31,8.3l397,229.2c19.1,11,31,31.6,31,53.7v458.4c0,22.1-11.9,42.7-31,53.7
			l-397,229.2c-9.4,5.4-20.1,8.3-31,8.3s-21.6-2.9-31-8.3L51,825.9c-19.1-11-31-31.6-31-53.7V313.8c0-22.1,11.9-42.7,31-53.7
			L448,30.9C457.4,25.4,468.1,22.6,479,22.6 M479,19.6c-11.2,0-22.5,2.9-32.5,8.7l-397,229.2C29.4,269.1,17,290.6,17,313.8v458.4
			c0,23.2,12.4,44.7,32.5,56.3l396.9,229.2c10.1,5.8,21.3,8.7,32.5,8.7s22.5-2.9,32.5-8.7l396.9-229.2
			c20.1-11.6,32.5-33.1,32.5-56.3V313.8c0-23.2-12.4-44.7-32.5-56.3L511.5,28.3C501.5,22.5,490.2,19.6,479,19.6L479,19.6z"/>
	</g>
</g>
</svg>
