<?xml version="1.0" encoding="utf-8"?>
<!-- Generator: Adobe Illustrator 21.1.0, SVG Export Plug-In . SVG Version: 6.00 Build 0)  -->
<svg version="1.1" id="Layer_1" xmlns="http://www.w3.org/2000/svg" xmlns:xlink="http://www.w3.org/1999/xlink" x="0px" y="0px"
	 viewBox="0 0 838 842" style="enable-background:new 0 0 838 842;" xml:space="preserve">
<style type="text/css">
	.st0{fill:url(#SVGID_1_);}
	.st1{fill:url(#SVGID_2_);}
	.st2{fill:url(#SVGID_3_);}
	.st3{fill:#CCCCCC;}
	.st4{font-family:'BalooTammudu2-Regular';}
	.st5{font-size:142.5988px;}
	.st6{font-size:84.6098px;}
</style>
<g>
	<g>
		<linearGradient id="SVGID_1_" gradientUnits="userSpaceOnUse" x1="240.5239" y1="494.6518" x2="240.5239" y2="18.3482">
			<stop  offset="0" style="stop-color:#FFFFFF;stop-opacity:0"/>
			<stop  offset="0.1196" style="stop-color:#FDFDFD;stop-opacity:0.3496"/>
			<stop  offset="0.1644" style="stop-color:#F6F6F6;stop-opacity:0.4804"/>
			<stop  offset="0.1812" style="stop-color:#F1F1F1;stop-opacity:0.5295"/>
			<stop  offset="0.9927" style="stop-color:#E6E6E6"/>
		</linearGradient>
		<path class="st0" d="M449.4,494.7c-3.5,0-6.3-2.8-6.3-6.3V51.6l-91.9,195.8v240.9c0,3.5-2.8,6.3-6.3,6.3s-6.3-2.8-6.3-6.3V274.2
			l-92,195.9l0,0.1c-0.3,2.1-1.6,3.9-3.5,4.9c-0.8,0.4-1.7,0.6-2.7,0.6h-0.2h-0.2c-0.9,0-1.8-0.2-2.7-0.6c-1.9-0.9-3.3-2.7-3.5-4.9
			l0-0.1l-91.6-195.2v213.5c0,3.5-2.8,6.3-6.3,6.3s-6.3-2.8-6.3-6.3V248.2L37.9,52.4v436c0,3.5-2.8,6.3-6.3,6.3s-6.3-2.8-6.3-6.3
			V24.6c0-3.5,2.8-6.3,6.3-6.3c1.9,0,3.6,0.8,4.8,2.3c0.5,0.5,0.9,1.1,1.2,1.7l92.2,196.3V27l0-0.1c-0.7-2.2-0.2-4.6,1.4-6.3
			c1.2-1.5,3-2.3,4.9-2.3c3.3,0,6.1,2.6,6.2,5.9l0,0.1l97.1,206.9l98-208.8c1-2.1,3-3.5,5.3-3.6h0l0,0c0.7-0.3,1.4-0.4,2.1-0.4
			c3.5,0,6.3,2.8,6.3,6.3V218l91.8-195.6c0.6-1.3,1.7-2.4,3-3c1-0.7,2.2-1,3.4-1c3.5,0,6.3,2.8,6.3,6.3v463.8
			C455.7,491.8,452.9,494.7,449.4,494.7z M142.3,245.4l98,208.8l98.4-209.5V49.1l-93.6,199.5c-1,2.2-3.3,3.6-5.7,3.6
			c-0.9,0-1.8-0.2-2.7-0.6c-1.7-0.8-3-2.3-3.4-4.2l0-0.1l0-0.1c-0.2-0.3-0.4-0.6-0.6-0.9L142.3,53.8V245.4z"/>
		<linearGradient id="SVGID_2_" gradientUnits="userSpaceOnUse" x1="240.5204" y1="495" x2="240.5204" y2="18">
			<stop  offset="0" style="stop-color:#FFFFFF;stop-opacity:0"/>
			<stop  offset="0.1196" style="stop-color:#FDFDFD;stop-opacity:0.3496"/>
			<stop  offset="0.1644" style="stop-color:#F6F6F6;stop-opacity:0.4804"/>
			<stop  offset="0.1812" style="stop-color:#F1F1F1;stop-opacity:0.5295"/>
			<stop  offset="0.9927" style="stop-color:#E6E6E6"/>
		</linearGradient>
		<path class="st1" d="M449.4,18.7c3.3,0,5.9,2.7,5.9,5.9v463.8c0,3.3-2.7,5.9-5.9,5.9c-3.3,0-5.9-2.7-5.9-5.9V53.2v-3.1l-1.3,2.8
			L351,247.3l-0.1,0.1v0.2v240.8c0,3.3-2.7,5.9-5.9,5.9c-3.3,0-5.9-2.7-5.9-5.9V275.7v-3.1l-1.3,2.8l-91.3,194.5l0,0.1l0,0.1
			c-0.3,2-1.5,3.7-3.3,4.6c-0.8,0.4-1.6,0.6-2.5,0.6c-0.1,0-0.1,0-0.2,0h0h0c-0.1,0-0.1,0-0.2,0c-0.9,0-1.7-0.2-2.5-0.6
			c-1.8-0.9-3.1-2.6-3.3-4.6l0-0.1l0-0.1l-90.9-193.7l-1.3-2.8v3.1v211.9c0,3.3-2.7,5.9-5.9,5.9s-5.9-2.7-5.9-5.9V248.3v-0.2
			l-0.1-0.1L38.8,53.6l-1.3-2.8v3.1v434.5c0,3.3-2.7,5.9-5.9,5.9s-5.9-2.7-5.9-5.9V24.6c0-3.3,2.7-5.9,5.9-5.9
			c1.8,0,3.4,0.8,4.5,2.1l0,0l0,0c0.5,0.5,0.8,1,1.1,1.6l91.5,194.9l1.3,2.8v-3.1v-190V27l0-0.1c-0.7-2.1-0.2-4.4,1.3-5.9l0,0l0,0
			c1.1-1.4,2.8-2.2,4.6-2.2c3.1,0,5.7,2.4,5.9,5.6l0,0.1l0.1,0.1l96.8,206.1l0.6,1.3l0.6-1.3l97.7-208.2c0.9-2,2.8-3.3,5-3.4l0.1,0
			l0.1,0c0.7-0.2,1.3-0.4,2-0.4c3.3,0,5.9,2.7,5.9,5.9v191.8v3.1l1.3-2.8l91.2-194.2c0.6-1.2,1.6-2.2,2.8-2.8l0,0l0,0
			C447.2,19,448.3,18.7,449.4,18.7 M239.4,251.9c-0.9,0-1.7-0.2-2.5-0.6c-1.6-0.8-2.8-2.2-3.2-3.9l0-0.1l-0.1-0.1
			c-0.2-0.3-0.4-0.6-0.5-0.9L143.3,55.1l-1.3-2.8v3.1v189.9v0.2l0.1,0.1l97.7,208.1l0.6,1.3l0.6-1.3l98-208.8l0.1-0.1v-0.2V50.7
			v-3.1l-1.3,2.8l-93,198C243.8,250.5,241.7,251.9,239.4,251.9 M449.4,18c-1.3,0-2.5,0.4-3.5,1c-1.3,0.6-2.5,1.7-3.1,3.2
			l-91.2,194.2V24.6c0-3.7-3-6.6-6.6-6.6c-0.8,0-1.5,0.1-2.2,0.4c-2.3,0.1-4.5,1.5-5.6,3.8l-97.7,208.2L142.7,24.2
			c-0.2-3.5-3.1-6.2-6.6-6.2c-2.1,0-3.9,1-5.1,2.5c-1.7,1.7-2.3,4.3-1.5,6.6v190L38,22.2c-0.3-0.7-0.8-1.3-1.3-1.8
			c-1.2-1.5-3-2.4-5.1-2.4C28,18,25,21,25,24.6v463.8c0,3.7,3,6.6,6.6,6.6s6.6-3,6.6-6.6V53.9l91.2,194.3v240.1c0,3.7,3,6.6,6.6,6.6
			s6.6-3,6.6-6.6V276.4l90.9,193.7c0.3,2.2,1.6,4.1,3.7,5.1c0.9,0.4,1.9,0.6,2.8,0.6c0.1,0,0.1,0,0.2,0s0.1,0,0.2,0
			c0.9,0,1.9-0.2,2.8-0.6c2.1-1,3.5-3,3.7-5.1l91.3-194.5v212.7c0,3.7,3,6.6,6.6,6.6s6.6-3,6.6-6.6V247.5l91.2-194.3v435.2
			c0,3.7,3,6.6,6.6,6.6c3.7,0,6.6-3,6.6-6.6V24.6C456,21,453.1,18,449.4,18L449.4,18z M239.4,252.6c2.5,0,4.9-1.4,6-3.8l93-198
			v193.9l-98,208.8l-97.7-208.1V55.4l89.7,191.2c0.2,0.4,0.4,0.7,0.6,1c0.5,1.9,1.7,3.5,3.6,4.4
			C237.5,252.4,238.5,252.6,239.4,252.6L239.4,252.6z"/>
	</g>
	<linearGradient id="SVGID_3_" gradientUnits="userSpaceOnUse" x1="658.5918" y1="494.6658" x2="658.5918" y2="18.9122">
		<stop  offset="0" style="stop-color:#FFFFFF;stop-opacity:0"/>
		<stop  offset="0.1196" style="stop-color:#FDFDFD;stop-opacity:0.3496"/>
		<stop  offset="0.1644" style="stop-color:#F6F6F6;stop-opacity:0.4804"/>
		<stop  offset="0.1812" style="stop-color:#F1F1F1;stop-opacity:0.5295"/>
		<stop  offset="0.9927" style="stop-color:#E6E6E6"/>
	</linearGradient>
	<path class="st2" d="M729.4,222.3l-56.1-23c-2.1-0.9-4.2-1.7-6.3-2.5c-8.6-3.5-16.3-6.6-23-9.6c-0.2-0.1-0.5-0.2-0.8-0.3
		c-21.7-9.9-33-18.7-33-34.2c0-10.3,4.2-18.4,12.4-24.1c8.6-6,21.5-9.2,37.1-9.2c30.9,0,57,10,87.2,33.5c2.9,2.2,7,1.7,9.3-1.2
		c2.2-2.9,1.7-7-1.2-9.3c-32.7-25.5-61.3-36.3-95.3-36.3c-37.7,0-61.5,17-62.7,44.5c-11.9-15.3-21-32.8-26.1-48.3
		c-6.6-20-6.9-37.4-1-46.4c24.7-15,55.5-23.7,89.7-23.7c43.8,0,75.3,9.3,105.4,31c3,2.1,7.1,1.5,9.2-1.5c2.1-3,1.5-7.1-1.5-9.2
		c-32.5-23.5-66.4-33.5-113.2-33.5c-45.4,0-86.9,14.3-117,40.4c-29.8,25.8-46.3,61.1-46.3,99.2c0,31.5,9.7,59.2,28.8,82.3
		c15.6,18.9,37.7,34.6,64,45.4l57.1,24.7l0.1,0c1.8,0.7,3.5,1.5,5.3,2.2c37.5,15.6,54.1,23.4,54.1,44.8c0,30.1-30,36.4-55.2,36.4
		c-33,0-71.8-16.8-103.7-45c-2.7-2.4-6.9-2.2-9.3,0.6c-2.4,2.7-2.2,6.9,0.6,9.3c34.2,30.2,76.3,48.3,112.4,48.3
		c43.5,0,68.4-18.1,68.4-49.7c0-2.9-0.2-5.7-0.7-8.3c15.9,15.7,28.4,35.4,35.5,52.9c7.9,19.5,9.5,36.7,4.2,46.1
		c-27.7,20.8-65.5,32.8-109.6,32.8c-49.8,0-89.4-15.2-128.5-49.4c-2.8-2.4-6.9-2.1-9.3,0.6c-2.4,2.8-2.1,6.9,0.6,9.3
		c41.6,36.4,83.9,52.7,137.2,52.7c51.3,0,95-14.9,126.6-43c29.5-26.4,45.8-62.5,45.8-101.8C820.7,289.2,790.8,247.5,729.4,222.3z
		 M774.4,434.1c0-10.6-2.8-23-8.3-36.6c-7.6-18.8-19.7-37.5-34.1-52.9c-16.2-17.3-34.3-29.2-52.3-34.4c-0.5-0.1-0.9-0.2-1.4-0.2
		c-6.6-3-13.8-6-21.5-9.2c-1.7-0.7-3.4-1.4-5.2-2.2L594.5,274l-0.1,0c-31.6-13-84.7-45.4-84.7-115.5c0-36.1,16.2-67.7,43.1-90.3
		c-0.9,10.8,1,23.8,5.7,38.1c6.3,19.2,17.1,38.8,30.4,55.1c14.7,18,31.5,30.8,48.7,37.4c7.5,3.4,15.8,6.8,24.5,10.3
		c2.1,0.8,4.2,1.7,6.2,2.5l56,23c56.7,23.3,83.1,59.9,83.1,115.2C807.5,383,795.5,411.9,774.4,434.1z"/>
</g>
<text transform="matrix(1 0 0 1 17.751 603.8252)" class="st3 st4 st5">Marcelo Silva</text>
<text transform="matrix(1 0 0 1 25.0005 681.5723)"><tspan x="0" y="0" class="st3 st4 st6">Frontend Developer &amp;</tspan><tspan x="0" y="101.5" class="st3 st4 st6">UI/UX Designer</tspan></text>
</svg>
