<?xml version="1.0" encoding="utf-8"?>
<!-- Generator: Adobe Illustrator 21.1.0, SVG Export Plug-In . SVG Version: 6.00 Build 0)  -->
<svg version="1.1" id="Layer_1" xmlns="http://www.w3.org/2000/svg" xmlns:xlink="http://www.w3.org/1999/xlink" x="0px" y="0px"
	 viewBox="0 0 659 683" style="enable-background:new 0 0 659 683;" xml:space="preserve">
<style type="text/css">
	.st0{fill:#FFFFFF;}
	.st1{fill:url(#SVGID_1_);}
	.st2{fill:url(#SVGID_2_);}
	.st3{fill:url(#SVGID_3_);}
	.st4{fill:url(#SVGID_4_);}
	.st5{fill:url(#SVGID_5_);}
	.st6{fill:url(#SVGID_6_);}
	.st7{fill:url(#SVGID_7_);}
	.st8{fill:url(#SVGID_8_);}
	.st9{fill:url(#SVGID_9_);}
	.st10{fill:url(#SVGID_10_);}
	.st11{fill:url(#SVGID_11_);}
	.st12{fill:url(#SVGID_12_);}
	.st13{fill:url(#SVGID_13_);}
	.st14{fill:url(#SVGID_14_);}
	.st15{fill:url(#SVGID_15_);}
	.st16{fill:url(#SVGID_16_);}
	.st17{fill:url(#SVGID_17_);}
	.st18{fill:url(#SVGID_18_);}
	.st19{fill:url(#SVGID_19_);}
	.st20{fill:url(#SVGID_20_);}
	.st21{fill:url(#SVGID_21_);}
	.st22{fill:url(#SVGID_22_);}
	.st23{fill:url(#SVGID_23_);}
	.st24{fill:url(#SVGID_24_);}
	.st25{fill:url(#SVGID_25_);}
	.st26{fill:url(#SVGID_26_);}
	.st27{fill:url(#SVGID_27_);}
	.st28{fill:url(#SVGID_28_);}
	.st29{fill:url(#SVGID_29_);}
	.st30{fill:url(#SVGID_30_);}
	.st31{fill:url(#SVGID_31_);}
	.st32{fill:url(#SVGID_32_);}
	.st33{fill:url(#SVGID_33_);}
	.st34{fill:url(#SVGID_34_);}
	.st35{fill:url(#SVGID_35_);}
	.st36{fill:url(#SVGID_36_);}
</style>
<g>
	<path class="st0" d="M85.2,180.5c0.6-1.3,1.3-2.5,2-3.7C86.5,178,85.8,179.2,85.2,180.5z"/>
	<path class="st0" d="M82.7,186.3c0.5-1.3,1-2.6,1.6-3.9C83.7,183.7,83.2,185,82.7,186.3z"/>
	<path class="st0" d="M81.3,462.7c-0.4-1.2-0.7-2.4-1-3.6C80.6,460.3,80.9,461.5,81.3,462.7z"/>
	<path class="st0" d="M80.2,194.4c0.3-1.4,0.7-2.7,1.1-4.1C80.9,191.7,80.5,193,80.2,194.4z"/>
	<path class="st0" d="M90.6,171.5c0.8-1.1,1.7-2.3,2.6-3.4C92.3,169.2,91.4,170.3,90.6,171.5z"/>
	<path class="st0" d="M87.2,176.8c1.1-1.8,2.2-3.6,3.4-5.3C89.4,173.2,88.2,175,87.2,176.8z"/>
	<path class="st0" d="M371.3,621c-1.5,0.6-3.1,1.2-4.7,1.7C368.2,622.2,369.8,621.7,371.3,621z"/>
	<path class="st0" d="M331.9,624.3c-0.9-0.2-1.8-0.4-2.6-0.7C330.1,623.8,331,624.1,331.9,624.3z"/>
	<path class="st0" d="M340.2,625.6c-1.4-0.1-2.8-0.3-4.2-0.5C337.4,625.3,338.8,625.5,340.2,625.6z"/>
	<path class="st0" d="M363.2,29.2c2.7,0.7,5.4,1.6,8.1,2.7C368.6,30.9,365.9,30,363.2,29.2z"/>
	<path class="st0" d="M90.6,481.5c-1.2-1.7-2.4-3.5-3.4-5.3C88.2,478,89.4,479.8,90.6,481.5z"/>
	<path class="st0" d="M84.3,470.6c-0.6-1.3-1.1-2.6-1.6-3.9C83.2,468,83.7,469.3,84.3,470.6z"/>
	<path class="st0" d="M100.5,492.5c-1.1-0.9-2.1-1.9-3.1-2.9C98.4,490.6,99.5,491.6,100.5,492.5z"/>
	<path class="st0" d="M357,625.1c-1.4,0.2-2.8,0.4-4.2,0.5C354.2,625.5,355.6,625.3,357,625.1z"/>
	<path class="st0" d="M582,153c3.8,2.2,7.4,4.8,10.6,7.7C589.4,157.7,585.8,155.2,582,153L379,35.8c-1.9-1.1-3.8-2.1-5.8-3
		c2,0.9,3.9,1.9,5.8,3L582,153z"/>
	<path class="st0" d="M98.9,161.9c-1,1-2,2-3,3C96.9,163.9,97.9,162.9,98.9,161.9z"/>
	<path class="st0" d="M314,35.8c10.1-5.8,21.3-8.7,32.5-8.7c5.6,0,11.2,0.7,16.7,2.2C346.8,24.9,329.1,27.1,314,35.8L111,153
		c-4.4,2.5-8.4,5.6-12.1,9c3.6-3.4,7.7-6.4,12.1-9L314,35.8z"/>
	<path class="st0" d="M111,500c-2.5-1.5-4.9-3.1-7.2-4.8C106.1,497,108.5,498.6,111,500l203,117.2c4,2.3,8.1,4.1,12.4,5.5
		c-4.3-1.4-8.4-3.2-12.4-5.5L111,500z"/>
	<path class="st0" d="M596.3,164.2c-0.5-0.5-1-1-1.5-1.5C595.3,163.1,595.8,163.6,596.3,164.2z"/>
	<path class="st0" d="M433.2,453.7l82.5-47.7c8.8-5.1,19.7-5.1,28.5,0l40.3,23.3v-220c0-12.5-6.7-24.1-17.5-30.4L364,61.8
		c-5.3-3.1-11.4-4.7-17.5-4.7s-12.2,1.6-17.5,4.7L126,178.9c-10.8,6.2-17.5,17.9-17.5,30.4v234.4c0,12.5,6.7,24.1,17.5,30.4
		l203,117.2c5.3,3.1,11.4,4.7,17.5,4.7c6.1,0,12.2-1.6,17.5-4.7l55-31.7v-81.2C419,468.2,424.4,458.8,433.2,453.7z"/>
	<path class="st0" d="M379,617.2c-1.9,1.1-3.8,2.1-5.8,3C375.2,619.3,377.2,618.3,379,617.2l45.7-26.4c0,0,0,0,0,0L379,617.2z"/>
	<linearGradient id="SVGID_1_" gradientUnits="userSpaceOnUse" x1="297.9966" y1="690.1673" x2="710.1673" y2="277.9966">
		<stop  offset="0" style="stop-color:#F15A24"/>
		<stop  offset="1" style="stop-color:#ED1E79"/>
	</linearGradient>
	<path class="st1" d="M366.6,622.7c-1.1,0.4-2.3,0.7-3.4,1C364.4,623.4,365.5,623.1,366.6,622.7z"/>
	<linearGradient id="SVGID_2_" gradientUnits="userSpaceOnUse" x1="279.3901" y1="671.5608" x2="691.5608" y2="259.3901">
		<stop  offset="0" style="stop-color:#F15A24"/>
		<stop  offset="1" style="stop-color:#ED1E79"/>
	</linearGradient>
	<path class="st2" d="M329.2,623.6c-1-0.3-1.9-0.5-2.8-0.9C327.3,623,328.3,623.3,329.2,623.6z"/>
	<linearGradient id="SVGID_3_" gradientUnits="userSpaceOnUse" x1="334.2659" y1="726.4366" x2="746.4366" y2="314.2659">
		<stop  offset="0" style="stop-color:#F15A24"/>
		<stop  offset="1" style="stop-color:#ED1E79"/>
	</linearGradient>
	<path class="st3" d="M614.5,446.6c0-0.2,0-0.5,0-0.7C614.5,446.1,614.5,446.3,614.5,446.6L614.5,446.6z"/>
	<linearGradient id="SVGID_4_" gradientUnits="userSpaceOnUse" x1="72.8411" y1="465.0117" x2="485.0117" y2="52.8411">
		<stop  offset="0" style="stop-color:#F15A24"/>
		<stop  offset="1" style="stop-color:#ED1E79"/>
	</linearGradient>
	<path class="st4" d="M80.3,459.1c-0.2-0.9-0.4-1.7-0.6-2.6C79.9,457.4,80.1,458.3,80.3,459.1z"/>
	<linearGradient id="SVGID_5_" gradientUnits="userSpaceOnUse" x1="69.5956" y1="461.7663" x2="481.7663" y2="49.5956">
		<stop  offset="0" style="stop-color:#F15A24"/>
		<stop  offset="1" style="stop-color:#ED1E79"/>
	</linearGradient>
	<path class="st5" d="M79.4,454.4c-0.2-1.4-0.4-2.8-0.6-4.3C78.9,451.6,79.1,453,79.4,454.4z"/>
	<linearGradient id="SVGID_6_" gradientUnits="userSpaceOnUse" x1="67.241" y1="459.4117" x2="479.4117" y2="47.241">
		<stop  offset="0" style="stop-color:#F15A24"/>
		<stop  offset="1" style="stop-color:#ED1E79"/>
	</linearGradient>
	<path class="st6" d="M78.8,450.2c-0.1-1.4-0.2-2.9-0.3-4.3C78.5,447.3,78.6,448.7,78.8,450.2z"/>
	<linearGradient id="SVGID_7_" gradientUnits="userSpaceOnUse" x1="186.0146" y1="578.1852" x2="598.1852" y2="166.0146">
		<stop  offset="0" style="stop-color:#F15A24"/>
		<stop  offset="1" style="stop-color:#ED1E79"/>
	</linearGradient>
	<path class="st7" d="M596.3,164.2c1.2,1.3,2.4,2.6,3.5,4C598.7,166.8,597.5,165.4,596.3,164.2z"/>
	<linearGradient id="SVGID_8_" gradientUnits="userSpaceOnUse" x1="195.9178" y1="588.0885" x2="608.0885" y2="175.9178">
		<stop  offset="0" style="stop-color:#F15A24"/>
		<stop  offset="1" style="stop-color:#ED1E79"/>
	</linearGradient>
	<path class="st8" d="M604.7,175c1.1,1.8,2.1,3.6,3.1,5.5C606.9,178.6,605.8,176.8,604.7,175z"/>
	<linearGradient id="SVGID_9_" gradientUnits="userSpaceOnUse" x1="190.1012" y1="582.2719" x2="602.2719" y2="170.1012">
		<stop  offset="0" style="stop-color:#F15A24"/>
		<stop  offset="1" style="stop-color:#ED1E79"/>
	</linearGradient>
	<path class="st9" d="M599.8,168.1c1.3,1.6,2.6,3.3,3.8,5.1C602.4,171.5,601.2,169.8,599.8,168.1z"/>
	<linearGradient id="SVGID_10_" gradientUnits="userSpaceOnUse" x1="181.5875" y1="573.7581" x2="593.7581" y2="161.5874">
		<stop  offset="0" style="stop-color:#F15A24"/>
		<stop  offset="1" style="stop-color:#ED1E79"/>
	</linearGradient>
	<path class="st10" d="M592.6,160.6c0.7,0.7,1.5,1.3,2.2,2C594.1,162,593.4,161.3,592.6,160.6z"/>
	<path class="st0" d="M424.8,590.8c-3.7-4.9-5.8-10.9-5.8-17.2v-14.2l-55,31.7c-5.3,3.1-11.4,4.7-17.5,4.7c-6.1,0-12.2-1.6-17.5-4.7
		L126,474.1c-10.8-6.2-17.5-17.9-17.5-30.4V209.3c0-12.5,6.7-24.1,17.5-30.4L329,61.8c5.3-3.1,11.4-4.7,17.5-4.7s12.2,1.6,17.5,4.7
		l203,117.2c10.8,6.2,17.5,17.9,17.5,30.4v220l29.9,17.3c0-0.2,0-0.5,0-0.7c0-0.7,0-1.4,0-2.2V209.3c0-10.2-2.4-20-6.7-28.8
		c-0.9-1.9-2-3.7-3.1-5.5c-0.4-0.6-0.8-1.2-1.1-1.8c-1.2-1.8-2.4-3.5-3.8-5.1c-1.1-1.4-2.3-2.7-3.5-4c-0.5-0.5-1-1-1.5-1.5
		c-0.7-0.7-1.4-1.4-2.2-2c-3.2-2.9-6.8-5.4-10.6-7.7L379,35.8c-1.9-1.1-3.8-2.1-5.8-3c-0.7-0.3-1.3-0.6-2-0.9
		c-2.6-1.1-5.3-2-8.1-2.7c-5.5-1.5-11.1-2.2-16.7-2.2c-11.2,0-22.5,2.9-32.5,8.7L111,153c-4.4,2.5-8.4,5.6-12.1,9c-1,1-2,2-3,3
		c-1,1-1.9,2.1-2.8,3.2s-1.7,2.2-2.6,3.4c-1.2,1.7-2.4,3.5-3.4,5.3c-0.7,1.2-1.4,2.5-2,3.7c-0.3,0.6-0.6,1.3-0.9,1.9
		c-0.6,1.3-1.1,2.6-1.6,3.9c-0.5,1.3-1,2.7-1.4,4c-0.4,1.4-0.8,2.7-1.1,4.1c-1.1,4.8-1.7,9.8-1.7,14.9v234.4c0,0.7,0,1.5,0,2.2
		c0,1.4,0.1,2.9,0.3,4.3c0.1,1.4,0.3,2.8,0.6,4.3c0.1,0.7,0.2,1.4,0.4,2.1c0.2,0.9,0.4,1.7,0.6,2.6c0.3,1.2,0.6,2.4,1,3.6
		c0.4,1.4,0.9,2.7,1.4,4s1,2.6,1.6,3.9c0.9,1.9,1.8,3.8,2.9,5.6c1.1,1.8,2.2,3.6,3.4,5.3c2,2.9,4.3,5.6,6.8,8.1c1,1,2,2,3.1,2.9
		s2.2,1.8,3.3,2.7c2.3,1.7,4.7,3.4,7.2,4.8l203,117.2c4,2.3,8.1,4.1,12.4,5.5c0.9,0.3,1.9,0.6,2.8,0.9c0.9,0.2,1.8,0.5,2.6,0.7
		c1.4,0.3,2.8,0.6,4.2,0.8s2.8,0.4,4.2,0.5c2.1,0.2,4.2,0.3,6.3,0.3c2.1,0,4.2-0.1,6.3-0.3c1.4-0.1,2.8-0.3,4.2-0.5
		c2.1-0.3,4.2-0.8,6.2-1.3c1.1-0.3,2.3-0.7,3.4-1c1.6-0.5,3.1-1.1,4.7-1.7c0.7-0.3,1.3-0.6,2-0.9c2-0.9,3.9-1.9,5.8-3L424.8,590.8z"
		/>
	<linearGradient id="SVGID_11_" gradientUnits="userSpaceOnUse" x1="607.8903" y1="438.4367" x2="504.9426" y2="640.483">
		<stop  offset="0" style="stop-color:#FCEE21"/>
		<stop  offset="1" style="stop-color:#ED1E79"/>
	</linearGradient>
	<path class="st11" d="M626.8,453.7l-12.3-7.1c-0.1,1.2-0.1,2.4-0.2,3.6c-0.1,1.4-0.3,2.8-0.6,4.3c-0.1,0.7-0.2,1.4-0.4,2.1
		c-0.4,2.1-0.9,4.2-1.6,6.2c-0.4,1.4-0.9,2.7-1.4,4s-1,2.6-1.6,3.9c-0.3,0.6-0.6,1.3-0.9,1.9c-0.9,1.9-2,3.7-3.1,5.5
		c-0.4,0.6-0.8,1.2-1.1,1.8c-1.2,1.8-2.4,3.5-3.8,5.1c-1.3,1.6-2.8,3.2-4.3,4.7c-0.5,0.5-1.1,1.1-1.7,1.6c-1,0.9-2,1.8-3.1,2.7
		c-1,0.8-1.9,1.6-3,2.3c-1.9,1.4-3.8,2.7-5.9,3.9l-157.2,90.8c2.3,3,5.1,5.6,8.5,7.5l82.5,47.7c8.8,5.1,19.7,5.1,28.5,0l82.5-47.7
		c8.8-5.1,14.2-14.5,14.2-24.7v-95.3C641,468.2,635.6,458.8,626.8,453.7z"/>
	<path class="st0" d="M595.6,489.6c-0.5,0.5-1.1,1.1-1.7,1.6C594.5,490.7,595,490.1,595.6,489.6z"/>
	<linearGradient id="SVGID_12_" gradientUnits="userSpaceOnUse" x1="618.4722" y1="443.8285" x2="515.5244" y2="645.8747">
		<stop  offset="0" style="stop-color:#FCEE21"/>
		<stop  offset="1" style="stop-color:#ED1E79"/>
	</linearGradient>
	<path class="st12" d="M595.6,489.6c-0.5,0.5-1.1,1.1-1.7,1.6C594.5,490.7,595,490.1,595.6,489.6z"/>
	<path class="st0" d="M587.9,496.2c-1.9,1.4-3.8,2.7-5.9,3.9l-157.2,90.8c0,0,0,0,0,0L582,500C584,498.9,586,497.6,587.9,496.2z"/>
	<linearGradient id="SVGID_13_" gradientUnits="userSpaceOnUse" x1="569.7595" y1="419.0081" x2="466.8118" y2="621.0543">
		<stop  offset="0" style="stop-color:#FCEE21"/>
		<stop  offset="1" style="stop-color:#ED1E79"/>
	</linearGradient>
	<path class="st13" d="M587.9,496.2c-1.9,1.4-3.8,2.7-5.9,3.9l-157.2,90.8c0,0,0,0,0,0L582,500C584,498.9,586,497.6,587.9,496.2z"/>
	<linearGradient id="SVGID_14_" gradientUnits="userSpaceOnUse" x1="339.9559" y1="732.1266" x2="752.1266" y2="319.9559">
		<stop  offset="0" style="stop-color:#F15A24"/>
		<stop  offset="1" style="stop-color:#ED1E79"/>
	</linearGradient>
	<path class="st14" d="M613.3,456.5c-0.4,2.1-0.9,4.2-1.6,6.2C612.3,460.7,612.8,458.6,613.3,456.5z"/>
	<linearGradient id="SVGID_15_" gradientUnits="userSpaceOnUse" x1="620.0944" y1="444.655" x2="517.1467" y2="646.7012">
		<stop  offset="0" style="stop-color:#FCEE21"/>
		<stop  offset="1" style="stop-color:#ED1E79"/>
	</linearGradient>
	<path class="st15" d="M613.3,456.5c-0.4,2.1-0.9,4.2-1.6,6.2C612.3,460.7,612.8,458.6,613.3,456.5z"/>
	<linearGradient id="SVGID_16_" gradientUnits="userSpaceOnUse" x1="345.9396" y1="738.1103" x2="758.1103" y2="325.9396">
		<stop  offset="0" style="stop-color:#F15A24"/>
		<stop  offset="1" style="stop-color:#ED1E79"/>
	</linearGradient>
	<path class="st16" d="M603.6,479.8c-1.2,1.8-2.4,3.5-3.8,5.1C601.2,483.2,602.4,481.5,603.6,479.8z"/>
	<linearGradient id="SVGID_17_" gradientUnits="userSpaceOnUse" x1="620.7436" y1="444.9858" x2="517.7959" y2="647.032">
		<stop  offset="0" style="stop-color:#FCEE21"/>
		<stop  offset="1" style="stop-color:#ED1E79"/>
	</linearGradient>
	<path class="st17" d="M603.6,479.8c-1.2,1.8-2.4,3.5-3.8,5.1C601.2,483.2,602.4,481.5,603.6,479.8z"/>
	<linearGradient id="SVGID_18_" gradientUnits="userSpaceOnUse" x1="346.3853" y1="738.5559" x2="758.5559" y2="326.3853">
		<stop  offset="0" style="stop-color:#F15A24"/>
		<stop  offset="1" style="stop-color:#ED1E79"/>
	</linearGradient>
	<path class="st18" d="M599.8,484.9c-1.3,1.6-2.8,3.2-4.3,4.7C597.1,488.1,598.5,486.5,599.8,484.9z"/>
	<linearGradient id="SVGID_19_" gradientUnits="userSpaceOnUse" x1="619.5431" y1="444.3741" x2="516.5954" y2="646.4203">
		<stop  offset="0" style="stop-color:#FCEE21"/>
		<stop  offset="1" style="stop-color:#ED1E79"/>
	</linearGradient>
	<path class="st19" d="M599.8,484.9c-1.3,1.6-2.8,3.2-4.3,4.7C597.1,488.1,598.5,486.5,599.8,484.9z"/>
	<linearGradient id="SVGID_20_" gradientUnits="userSpaceOnUse" x1="344.6802" y1="736.8509" x2="756.8509" y2="324.6802">
		<stop  offset="0" style="stop-color:#F15A24"/>
		<stop  offset="1" style="stop-color:#ED1E79"/>
	</linearGradient>
	<path class="st20" d="M607.8,472.5c-0.9,1.9-2,3.7-3.1,5.5C605.8,476.2,606.9,474.4,607.8,472.5z"/>
	<linearGradient id="SVGID_21_" gradientUnits="userSpaceOnUse" x1="621.5015" y1="445.372" x2="518.5538" y2="647.4182">
		<stop  offset="0" style="stop-color:#FCEE21"/>
		<stop  offset="1" style="stop-color:#ED1E79"/>
	</linearGradient>
	<path class="st21" d="M607.8,472.5c-0.9,1.9-2,3.7-3.1,5.5C605.8,476.2,606.9,474.4,607.8,472.5z"/>
	<linearGradient id="SVGID_22_" gradientUnits="userSpaceOnUse" x1="346.3801" y1="738.5508" x2="758.5508" y2="326.3801">
		<stop  offset="0" style="stop-color:#F15A24"/>
		<stop  offset="1" style="stop-color:#ED1E79"/>
	</linearGradient>
	<path class="st22" d="M593.9,491.2c-1,0.9-2,1.8-3.1,2.7C591.9,493,592.9,492.1,593.9,491.2z"/>
	<linearGradient id="SVGID_23_" gradientUnits="userSpaceOnUse" x1="617.4666" y1="443.3161" x2="514.5189" y2="645.3623">
		<stop  offset="0" style="stop-color:#FCEE21"/>
		<stop  offset="1" style="stop-color:#ED1E79"/>
	</linearGradient>
	<path class="st23" d="M593.9,491.2c-1,0.9-2,1.8-3.1,2.7C591.9,493,592.9,492.1,593.9,491.2z"/>
	<linearGradient id="SVGID_24_" gradientUnits="userSpaceOnUse" x1="346.1207" y1="738.2914" x2="758.2914" y2="326.1207">
		<stop  offset="0" style="stop-color:#F15A24"/>
		<stop  offset="1" style="stop-color:#ED1E79"/>
	</linearGradient>
	<path class="st24" d="M590.9,493.9c-1,0.8-1.9,1.6-3,2.3C588.9,495.4,589.9,494.7,590.9,493.9z"/>
	<linearGradient id="SVGID_25_" gradientUnits="userSpaceOnUse" x1="616.0852" y1="442.6122" x2="513.1375" y2="644.6585">
		<stop  offset="0" style="stop-color:#FCEE21"/>
		<stop  offset="1" style="stop-color:#ED1E79"/>
	</linearGradient>
	<path class="st25" d="M590.9,493.9c-1,0.8-1.9,1.6-3,2.3C588.9,495.4,589.9,494.7,590.9,493.9z"/>
	<linearGradient id="SVGID_26_" gradientUnits="userSpaceOnUse" x1="337.0236" y1="729.1943" x2="749.1943" y2="317.0236">
		<stop  offset="0" style="stop-color:#F15A24"/>
		<stop  offset="1" style="stop-color:#ED1E79"/>
	</linearGradient>
	<path class="st26" d="M614.2,450.2c-0.1,1.4-0.3,2.8-0.6,4.3C613.9,453,614.1,451.6,614.2,450.2z"/>
	<linearGradient id="SVGID_27_" gradientUnits="userSpaceOnUse" x1="618.2873" y1="443.7343" x2="515.3396" y2="645.7805">
		<stop  offset="0" style="stop-color:#FCEE21"/>
		<stop  offset="1" style="stop-color:#ED1E79"/>
	</linearGradient>
	<path class="st27" d="M614.2,450.2c-0.1,1.4-0.3,2.8-0.6,4.3C613.9,453,614.1,451.6,614.2,450.2z"/>
	<linearGradient id="SVGID_28_" gradientUnits="userSpaceOnUse" x1="335.272" y1="727.4427" x2="747.4427" y2="315.272">
		<stop  offset="0" style="stop-color:#F15A24"/>
		<stop  offset="1" style="stop-color:#ED1E79"/>
	</linearGradient>
	<path class="st28" d="M614.2,450.2c0.1-1.2,0.2-2.4,0.2-3.6l0,0C614.4,447.8,614.3,449,614.2,450.2z"/>
	<linearGradient id="SVGID_29_" gradientUnits="userSpaceOnUse" x1="617.0294" y1="443.0933" x2="514.0817" y2="645.1396">
		<stop  offset="0" style="stop-color:#FCEE21"/>
		<stop  offset="1" style="stop-color:#ED1E79"/>
	</linearGradient>
	<path class="st29" d="M614.2,450.2c0.1-1.2,0.2-2.4,0.2-3.6l0,0C614.4,447.8,614.3,449,614.2,450.2z"/>
	<linearGradient id="SVGID_30_" gradientUnits="userSpaceOnUse" x1="342.9973" y1="735.168" x2="755.168" y2="322.9973">
		<stop  offset="0" style="stop-color:#F15A24"/>
		<stop  offset="1" style="stop-color:#ED1E79"/>
	</linearGradient>
	<path class="st30" d="M610.3,466.7c-0.5,1.3-1,2.6-1.6,3.9C609.3,469.3,609.8,468,610.3,466.7z"/>
	<linearGradient id="SVGID_31_" gradientUnits="userSpaceOnUse" x1="621.4027" y1="445.3217" x2="518.455" y2="647.3679">
		<stop  offset="0" style="stop-color:#FCEE21"/>
		<stop  offset="1" style="stop-color:#ED1E79"/>
	</linearGradient>
	<path class="st31" d="M610.3,466.7c-0.5,1.3-1,2.6-1.6,3.9C609.3,469.3,609.8,468,610.3,466.7z"/>
	<path class="st0" d="M584.5,429.3v14.4c0,12.5-6.7,24.1-17.5,30.4l-148,85.4v14.2c0,6.3,2.1,12.3,5.8,17.2L582,500
		c2-1.2,4-2.5,5.9-3.9c1-0.7,2-1.5,3-2.3c1.1-0.9,2.1-1.8,3.1-2.7c0.6-0.5,1.1-1.1,1.7-1.6c1.5-1.5,2.9-3.1,4.3-4.7
		c1.3-1.6,2.6-3.3,3.8-5.1c0.4-0.6,0.8-1.2,1.1-1.8c1.1-1.8,2.1-3.6,3.1-5.5c0.3-0.6,0.6-1.3,0.9-1.9c0.6-1.3,1.1-2.6,1.6-3.9
		s1-2.7,1.4-4c0.6-2,1.1-4.1,1.6-6.2c0.1-0.7,0.3-1.4,0.4-2.1c0.2-1.4,0.4-2.8,0.6-4.3c0.1-1.2,0.2-2.4,0.2-3.6L584.5,429.3z"/>
	<linearGradient id="SVGID_32_" gradientUnits="userSpaceOnUse" x1="319.8326" y1="712.0032" x2="732.0032" y2="299.8326">
		<stop  offset="0" style="stop-color:#F15A24"/>
		<stop  offset="1" style="stop-color:#ED1E79"/>
	</linearGradient>
	<path class="st32" d="M584.5,429.3v14.4c0,12.5-6.7,24.1-17.5,30.4l-148,85.4v14.2c0,6.3,2.1,12.3,5.8,17.2L582,500
		c2-1.2,4-2.5,5.9-3.9c1-0.7,2-1.5,3-2.3c1.1-0.9,2.1-1.8,3.1-2.7c0.6-0.5,1.1-1.1,1.7-1.6c1.5-1.5,2.9-3.1,4.3-4.7
		c1.3-1.6,2.6-3.3,3.8-5.1c0.4-0.6,0.8-1.2,1.1-1.8c1.1-1.8,2.1-3.6,3.1-5.5c0.3-0.6,0.6-1.3,0.9-1.9c0.6-1.3,1.1-2.6,1.6-3.9
		s1-2.7,1.4-4c0.6-2,1.1-4.1,1.6-6.2c0.1-0.7,0.3-1.4,0.4-2.1c0.2-1.4,0.4-2.8,0.6-4.3c0.1-1.2,0.2-2.4,0.2-3.6L584.5,429.3z"/>
	<g>
		<linearGradient id="SVGID_33_" gradientUnits="userSpaceOnUse" x1="141.3447" y1="533.5153" x2="553.5092" y2="121.3508">
			<stop  offset="0" style="stop-color:#F15A24"/>
			<stop  offset="1" style="stop-color:#ED1E79"/>
		</linearGradient>
		<path class="st33" d="M607.8,180.5c-0.9-1.9-2-3.7-3.1-5.5c-0.4-0.6-0.8-1.2-1.1-1.8c-1.2-1.8-2.4-3.5-3.8-5.1
			c-1.1-1.4-2.3-2.7-3.5-4c-0.5-0.5-1-1-1.5-1.5c-0.7-0.7-1.4-1.4-2.2-2c-3.2-2.9-6.8-5.4-10.6-7.7L379,35.8c-1.9-1.1-3.8-2.1-5.8-3
			c-0.7-0.3-1.3-0.6-2-0.9c-2.6-1.1-5.3-2-8.1-2.7c-5.5-1.5-11.1-2.2-16.7-2.2c-11.2,0-22.5,2.9-32.5,8.7l-144.5,83.4
			c9.1,5.4,15.1,14.8,16.3,25.2L329,61.8c5.3-3.1,11.4-4.7,17.5-4.7s12.2,1.6,17.5,4.7l203,117.2c10.8,6.2,17.5,17.9,17.5,30.4v220
			l29.9,17.3c0-0.2,0-0.5,0-0.7c0-0.7,0-1.4,0-2.2V209.3C614.5,199.2,612.2,189.3,607.8,180.5z"/>
		<linearGradient id="SVGID_34_" gradientUnits="userSpaceOnUse" x1="144.3261" y1="536.4968" x2="556.4907" y2="124.3323">
			<stop  offset="0" style="stop-color:#F15A24"/>
			<stop  offset="1" style="stop-color:#ED1E79"/>
		</linearGradient>
		<path class="st34" d="M82.1,269.7l-3.6-2.1v176.1c0,0.7,0,1.5,0,2.2c0,1.4,0.1,2.9,0.3,4.3c0.1,1.4,0.3,2.8,0.6,4.3
			c0.1,0.7,0.2,1.4,0.4,2.1c0.2,0.9,0.4,1.7,0.6,2.6c0.3,1.2,0.6,2.4,1,3.6c0.4,1.4,0.9,2.7,1.4,4s1,2.6,1.6,3.9
			c0.9,1.9,1.8,3.8,2.9,5.6c1.1,1.8,2.2,3.6,3.4,5.3c2,2.9,4.3,5.6,6.8,8.1c1,1,2,2,3.1,2.9s2.2,1.8,3.3,2.7
			c2.3,1.7,4.7,3.4,7.2,4.8l203,117.2c4,2.3,8.1,4.1,12.4,5.5c0.9,0.3,1.9,0.6,2.8,0.9c0.9,0.2,1.8,0.5,2.6,0.7
			c1.4,0.3,2.8,0.6,4.2,0.8s2.8,0.4,4.2,0.5c2.1,0.2,4.2,0.3,6.3,0.3c2.1,0,4.2-0.1,6.3-0.3c1.4-0.1,2.8-0.3,4.2-0.5
			c2.1-0.3,4.2-0.8,6.2-1.3c1.1-0.3,2.3-0.7,3.4-1c1.6-0.5,3.1-1.1,4.7-1.7c0.7-0.3,1.3-0.6,2-0.9c2-0.9,3.9-1.9,5.8-3l45.7-26.4
			c-3.7-4.9-5.8-10.9-5.8-17.2v-14.2l-55,31.7c-5.3,3.1-11.4,4.7-17.5,4.7c-6.1,0-12.2-1.6-17.5-4.7L126,474.1
			c-10.8-6.2-17.5-17.9-17.5-30.4V272.9C99.7,275.4,90.2,274.4,82.1,269.7z"/>
		
			<linearGradient id="SVGID_35_" gradientUnits="userSpaceOnUse" x1="668.3143" y1="-553.7158" x2="581.923" y2="-384.1633" gradientTransform="matrix(4.489659e-11 -1 1 4.489659e-11 568 804)">
			<stop  offset="0" style="stop-color:#FCEE21"/>
			<stop  offset="1" style="stop-color:#F15A24"/>
		</linearGradient>
		<path class="st35" d="M80.2,194.4c0.3-1.4,0.7-2.7,1.1-4.1c0.4-1.4,0.9-2.7,1.4-4c0.5-1.3,1-2.6,1.6-3.9c0.3-0.6,0.6-1.3,0.9-1.9
			c0.6-1.3,1.3-2.5,2-3.7c1.1-1.8,2.2-3.6,3.4-5.3c0.8-1.1,1.7-2.3,2.6-3.4s1.8-2.2,2.8-3.2c1-1,2-2,3-3c3.6-3.4,7.7-6.4,12.1-9
			l58.4-33.7c-0.1-0.1-0.2-0.1-0.3-0.2l-53.2-30.7c-10.5-6-23.3-6-33.8,0L28.9,119c-10.5,6-16.9,17.2-16.9,29.3v61.4
			c0,12.1,6.4,23.2,16.9,29.3l49.6,28.6v-58.3C78.5,204.2,79.1,199.2,80.2,194.4z"/>
		<linearGradient id="SVGID_36_" gradientUnits="userSpaceOnUse" x1="-35.5463" y1="356.6243" x2="376.6182" y2="-55.5402">
			<stop  offset="0" style="stop-color:#F15A24"/>
			<stop  offset="1" style="stop-color:#ED1E79"/>
		</linearGradient>
		<path class="st36" d="M169.4,119.2L111,153c-4.4,2.5-8.4,5.6-12.1,9c-1,1-2,2-3,3c-1,1-1.9,2.1-2.8,3.2s-1.7,2.2-2.6,3.4
			c-1.2,1.7-2.4,3.5-3.4,5.3c-0.7,1.2-1.4,2.5-2,3.7c-0.3,0.6-0.6,1.3-0.9,1.9c-0.6,1.3-1.1,2.6-1.6,3.9c-0.5,1.3-1,2.7-1.4,4
			c-0.4,1.4-0.8,2.7-1.1,4.1c-1.1,4.8-1.7,9.8-1.7,14.9v58.3l3.6,2.1c8.1,4.7,17.6,5.7,26.4,3.2v-63.5c0-12.5,6.7-24.1,17.5-30.4
			l59.8-34.5C184.6,134,178.6,124.6,169.4,119.2z"/>
	</g>
</g>
<g>
	<defs>
		<path id="XMLID_1_" d="M133,227.7v196.6c0,15.6,8.3,30.1,21.9,37.9l170.2,98.3c13.5,7.8,30.2,7.8,43.8,0l170.2-98.3
			c13.5-7.8,21.9-22.3,21.9-37.9V227.7c0-15.6-8.3-30.1-21.9-37.9L368.9,91.5c-13.5-7.8-30.2-7.8-43.8,0l-170.2,98.3
			C141.3,197.6,133,212.1,133,227.7z"/>
	</defs>
	
		<linearGradient id="XMLID_3_" gradientUnits="userSpaceOnUse" x1="-566.2083" y1="389.2083" x2="-235.7917" y2="58.7917" gradientTransform="matrix(4.489659e-11 -1 1 4.489659e-11 123 -75)">
		<stop  offset="0" style="stop-color:#FCEE21"/>
		<stop  offset="1" style="stop-color:#ED1E79"/>
	</linearGradient>
	<use xlink:href="#XMLID_1_"  style="overflow:visible;fill:url(#XMLID_3_);"/>
	<clipPath id="XMLID_4_">
		<use xlink:href="#XMLID_1_"  style="overflow:visible;"/>
	</clipPath>
	<g style="clip-path:url(#XMLID_4_);">
		
			<image style="overflow:visible;" width="1715" height="1677" xlink:href="IMG_20181016_191337.png"  transform="matrix(0.3426 0 0 0.3426 69 57)">
		</image>
	</g>
</g>
</svg>
