<?xml version="1.0" encoding="utf-8"?>
<!-- Generator: Adobe Illustrator 22.1.0, SVG Export Plug-In . SVG Version: 6.00 Build 0)  -->
<svg version="1.1" id="Layer_1" xmlns="http://www.w3.org/2000/svg" xmlns:xlink="http://www.w3.org/1999/xlink" x="0px" y="0px"
	 viewBox="0 0 768 1366" style="enable-background:new 0 0 768 1366;" xml:space="preserve">
<style type="text/css">
	.st0{opacity:0.12;}
	.st1{fill:url(#SVGID_1_);}
	.st2{fill:url(#SVGID_2_);}
	.st3{fill:url(#SVGID_3_);}
	.st4{fill:url(#SVGID_4_);}
	.st5{fill:url(#SVGID_5_);}
	.st6{fill:url(#SVGID_6_);}
	.st7{fill:url(#SVGID_7_);}
	.st8{fill:url(#SVGID_8_);}
	.st9{fill:url(#SVGID_9_);}
	.st10{fill:url(#SVGID_10_);}
	.st11{fill:url(#SVGID_11_);}
	.st12{fill:url(#SVGID_12_);}
	.st13{fill:url(#SVGID_13_);}
	.st14{fill:url(#SVGID_14_);}
	.st15{fill:url(#SVGID_15_);}
	.st16{fill:url(#SVGID_16_);}
	.st17{fill:url(#SVGID_17_);}
	.st18{fill:url(#SVGID_18_);}
	.st19{fill:url(#SVGID_19_);}
	.st20{fill:url(#SVGID_20_);}
	.st21{fill:url(#SVGID_21_);}
	.st22{fill:url(#SVGID_22_);}
	.st23{fill:url(#SVGID_23_);}
	.st24{fill:url(#SVGID_24_);}
	.st25{fill:url(#SVGID_25_);}
	.st26{fill:url(#SVGID_26_);}
	.st27{fill:url(#SVGID_27_);}
	.st28{fill:url(#SVGID_28_);}
	.st29{fill:url(#SVGID_29_);}
	.st30{fill:url(#SVGID_30_);}
	.st31{fill:url(#SVGID_31_);}
	.st32{fill:url(#SVGID_32_);}
	.st33{fill:url(#SVGID_33_);}
</style>
<g class="st0">
	<g>
		
			<linearGradient id="SVGID_1_" gradientUnits="userSpaceOnUse" x1="484.0984" y1="-34.9188" x2="508.7785" y2="1378.9808" gradientTransform="matrix(2.143842e-02 6.598068e-02 -6.598068e-02 2.143842e-02 530.1367 624.8683)">
			<stop  offset="0" style="stop-color:#0071BC"/>
			<stop  offset="1" style="stop-color:#FF00FF"/>
		</linearGradient>
		<path class="st1" d="M551,680.8c0.4,1.3,0.1,2.6-0.7,3.6l-34,39.2c-0.9,1-2.2,1.5-3.6,1.2l-50.9-9.9c-1.3-0.3-2.4-1.2-2.8-2.5
			l-16.9-49.1c0,0,0,0,0-0.1c-0.4-1.3-0.1-2.6,0.7-3.6l34-39.2c0.9-1,2.2-1.5,3.6-1.2l50.9,9.9c1.3,0.3,2.4,1.2,2.8,2.5L551,680.8
			C550.9,680.7,551,680.7,551,680.8 M551.3,680.7C551.3,680.6,551.3,680.6,551.3,680.7l-16.9-49.1c-0.5-1.4-1.7-2.4-3.1-2.7
			l-50.9-9.9c-1.4-0.3-2.9,0.2-3.9,1.3l-34,39.2c-0.9,1.1-1.3,2.6-0.8,4c0,0,0,0,0,0.1l16.9,49.1c0.5,1.4,1.7,2.4,3.1,2.7l50.9,9.9
			c1.4,0.3,2.9-0.2,3.9-1.3l34-39.2C551.4,683.5,551.7,682,551.3,680.7L551.3,680.7z"/>
	</g>
	<g>
		
			<linearGradient id="SVGID_2_" gradientUnits="userSpaceOnUse" x1="484.0984" y1="-34.9188" x2="508.7785" y2="1378.9808" gradientTransform="matrix(1.179655e-02 7.448050e-02 -7.448050e-02 1.179655e-02 540.6354 627.1284)">
			<stop  offset="0" style="stop-color:#0071BC"/>
			<stop  offset="1" style="stop-color:#FF00FF"/>
		</linearGradient>
		<path class="st2" d="M553.5,690.7c0.2,1.4-0.3,2.9-1.4,3.8l-43.2,36.3c-1.1,0.9-2.7,1.2-4,0.7l-53-19.3c-1.4-0.5-2.4-1.7-2.6-3.1
			l-9.8-55.5c0,0,0,0,0-0.1c-0.2-1.4,0.3-2.9,1.4-3.8l43.2-36.3c1.1-0.9,2.7-1.2,4-0.7l53,19.3c1.4,0.5,2.4,1.7,2.6,3.1L553.5,690.7
			C553.5,690.6,553.5,690.7,553.5,690.7 M553.9,690.6C553.9,690.6,553.8,690.6,553.9,690.6l-9.8-55.6c-0.3-1.6-1.4-2.9-2.9-3.4
			l-53-19.3c-1.5-0.5-3.2-0.3-4.4,0.8l-43.2,36.3c-1.2,1-1.8,2.6-1.5,4.1c0,0,0,0.1,0,0.1l9.8,55.5c0.3,1.6,1.4,2.9,2.9,3.4l53,19.3
			c1.5,0.5,3.2,0.3,4.4-0.8l43.2-36.3C553.5,693.7,554.1,692.2,553.9,690.6L553.9,690.6z"/>
	</g>
	<g>
		
			<linearGradient id="SVGID_3_" gradientUnits="userSpaceOnUse" x1="484.0984" y1="-34.9188" x2="508.7785" y2="1378.9808" gradientTransform="matrix(-3.469447e-18 8.196621e-02 -8.196621e-02 -3.469447e-18 551.5223 631.3398)">
			<stop  offset="0" style="stop-color:#0071BC"/>
			<stop  offset="1" style="stop-color:#FF00FF"/>
		</linearGradient>
		<path class="st3" d="M554.5,701.8c0,1.6-0.8,3-2.2,3.8l-52.5,31.6c-1.4,0.8-3.1,0.8-4.5,0.1l-53.6-29.7c-1.4-0.8-2.3-2.2-2.3-3.8
			l-1.1-61.3c0,0,0-0.1,0-0.1c0-1.6,0.8-3,2.2-3.8l52.5-31.6c1.4-0.8,3.1-0.8,4.5-0.1l53.6,29.7c1.4,0.8,2.3,2.2,2.3,3.8
			L554.5,701.8C554.5,701.7,554.5,701.7,554.5,701.8 M554.9,701.8C554.9,701.7,554.9,701.7,554.9,701.8l-1.1-61.4
			c0-1.7-1-3.3-2.5-4.2l-53.6-29.7c-1.5-0.8-3.4-0.8-4.9,0.1l-52.5,31.6c-1.5,0.9-2.4,2.5-2.4,4.2c0,0,0,0.1,0,0.1l1.1,61.3
			c0,1.7,1,3.3,2.5,4.2l53.6,29.7c1.5,0.8,3.4,0.8,4.9-0.1l52.5-31.6C554,705,554.9,703.5,554.9,701.8L554.9,701.8z"/>
	</g>
	<g>
		
			<linearGradient id="SVGID_4_" gradientUnits="userSpaceOnUse" x1="484.0984" y1="-34.9188" x2="508.7785" y2="1378.9808" gradientTransform="matrix(-1.393733e-02 8.799681e-02 -8.799681e-02 -1.393733e-02 562.4941 637.7123)">
			<stop  offset="0" style="stop-color:#0071BC"/>
			<stop  offset="1" style="stop-color:#FF00FF"/>
		</linearGradient>
		<path class="st4" d="M553.7,713.8c-0.3,1.7-1.4,3.1-3,3.7l-61.8,25c-1.6,0.6-3.4,0.4-4.8-0.7l-52.5-41c-1.4-1.1-2.1-2.8-1.8-4.5
			l9.3-66c0,0,0-0.1,0-0.1c0.3-1.7,1.4-3.1,3-3.7l61.8-25c1.6-0.6,3.4-0.4,4.8,0.7l52.5,41c1.4,1.1,2.1,2.8,1.8,4.5L553.7,713.8
			C553.7,713.8,553.7,713.8,553.7,713.8 M554.2,713.9C554.2,713.9,554.2,713.8,554.2,713.9l9.3-66.1c0.3-1.9-0.5-3.7-2-4.9l-52.5-41
			c-1.5-1.2-3.5-1.4-5.2-0.7l-61.8,25c-1.7,0.7-3,2.2-3.2,4.1c0,0,0,0.1,0,0.1l-9.3,66c-0.3,1.9,0.5,3.7,2,4.9l52.5,41
			c1.5,1.2,3.5,1.4,5.2,0.7l61.8-25C552.6,717.3,553.9,715.7,554.2,713.9L554.2,713.9z"/>
	</g>
	<g>
		
			<linearGradient id="SVGID_5_" gradientUnits="userSpaceOnUse" x1="484.0984" y1="-34.9188" x2="508.7785" y2="1378.9808" gradientTransform="matrix(-2.992551e-02 9.210125e-02 -9.210125e-02 -2.992551e-02 573.1896 646.4193)">
			<stop  offset="0" style="stop-color:#0071BC"/>
			<stop  offset="1" style="stop-color:#FF00FF"/>
		</linearGradient>
		<path class="st5" d="M550.8,726.6c-0.6,1.7-2,3.1-3.8,3.5l-70.6,16.3c-1.8,0.4-3.8-0.2-5-1.5l-49.4-53c-1.3-1.4-1.7-3.3-1.2-5.1
			l21.2-69.3c0,0,0-0.1,0-0.1c0.6-1.7,2-3.1,3.8-3.5l70.6-16.3c1.8-0.4,3.8,0.2,5,1.5l49.4,53c1.3,1.4,1.7,3.3,1.2,5.1L550.8,726.6
			C550.9,726.6,550.8,726.6,550.8,726.6 M551.3,726.8C551.3,726.7,551.3,726.7,551.3,726.8l21.2-69.4c0.6-2,0.1-4.1-1.3-5.6
			l-49.4-53c-1.4-1.5-3.5-2.1-5.5-1.7l-70.6,16.3c-2,0.5-3.6,1.9-4.2,3.8c0,0,0,0.1,0,0.1l-21.2,69.3c-0.6,2-0.1,4.1,1.3,5.6
			l49.4,53c1.4,1.5,3.5,2.1,5.5,1.7l70.6-16.3C549.1,730.1,550.7,728.7,551.3,726.8L551.3,726.8z"/>
	</g>
	<g>
		
			<linearGradient id="SVGID_6_" gradientUnits="userSpaceOnUse" x1="484.0984" y1="-34.9188" x2="508.7785" y2="1378.9808" gradientTransform="matrix(-4.778792e-02 9.378907e-02 -9.378907e-02 -4.778792e-02 583.1914 657.5854)">
			<stop  offset="0" style="stop-color:#0071BC"/>
			<stop  offset="1" style="stop-color:#FF00FF"/>
		</linearGradient>
		<path class="st6" d="M545.6,739.9c-0.9,1.8-2.7,3-4.7,3.1l-78.5,5.5c-2,0.1-4-0.8-5.1-2.5l-44-65.3c-1.1-1.7-1.3-3.9-0.4-5.7
			l34.5-70.8c0,0,0-0.1,0-0.1c0.9-1.8,2.7-3,4.7-3.1l78.5-5.5c2-0.1,4,0.8,5.1,2.5l44,65.3c1.1,1.7,1.3,3.9,0.4,5.7L545.6,739.9
			C545.6,739.8,545.6,739.9,545.6,739.9 M546,740.1C546,740.1,546.1,740.1,546,740.1l34.6-70.9c1-2,0.8-4.4-0.4-6.2l-44-65.3
			c-1.2-1.9-3.4-2.9-5.6-2.7l-78.5,5.5c-2.2,0.2-4.1,1.4-5.1,3.4c0,0,0,0.1,0,0.1l-34.5,70.8c-1,2-0.8,4.4,0.4,6.2l44,65.3
			c1.2,1.9,3.4,2.9,5.6,2.7l78.5-5.5C543.1,743.4,545,742.1,546,740.1L546,740.1z"/>
	</g>
	<g>
		
			<linearGradient id="SVGID_7_" gradientUnits="userSpaceOnUse" x1="484.0984" y1="-34.9188" x2="508.7785" y2="1378.9808" gradientTransform="matrix(-6.725153e-02 9.256379e-02 -9.256379e-02 -6.725153e-02 592.0305 671.2739)">
			<stop  offset="0" style="stop-color:#0071BC"/>
			<stop  offset="1" style="stop-color:#FF00FF"/>
		</linearGradient>
		<path class="st7" d="M537.6,753.2c-1.3,1.8-3.4,2.7-5.6,2.5l-85.2-7.5c-2.2-0.2-4.2-1.6-5.1-3.6l-36.2-77.6
			c-0.9-2-0.7-4.4,0.5-6.2l49.1-70.1c0,0,0-0.1,0.1-0.1c1.3-1.8,3.4-2.7,5.6-2.5l85.2,7.5c2.2,0.2,4.2,1.6,5.1,3.6l36.2,77.6
			c0.9,2,0.7,4.4-0.5,6.2L537.6,753.2C537.7,753.2,537.7,753.2,537.6,753.2 M538.1,753.6C538.1,753.5,538.1,753.5,538.1,753.6
			l49.1-70.2c1.4-2,1.6-4.6,0.6-6.8l-36.2-77.6c-1-2.2-3.1-3.7-5.6-3.9l-85.2-7.5c-2.4-0.2-4.7,0.8-6.1,2.8c0,0,0,0.1-0.1,0.1
			l-49.1,70.1c-1.4,2-1.6,4.6-0.6,6.8l36.2,77.6c1,2.2,3.1,3.7,5.6,3.9l85.2,7.5C534.4,756.6,536.7,755.5,538.1,753.6L538.1,753.6z"
			/>
	</g>
	<g>
		
			<linearGradient id="SVGID_8_" gradientUnits="userSpaceOnUse" x1="484.0984" y1="-34.9188" x2="508.7785" y2="1378.9808" gradientTransform="matrix(-8.793883e-02 8.793883e-02 -8.793883e-02 -8.793883e-02 599.1923 687.4724)">
			<stop  offset="0" style="stop-color:#0071BC"/>
			<stop  offset="1" style="stop-color:#FF00FF"/>
		</linearGradient>
		<path class="st8" d="M526.9,766.2c-1.7,1.7-4.1,2.4-6.4,1.8l-90.2-22.5c-2.3-0.6-4.2-2.4-4.9-4.7l-25.6-89.4
			c-0.7-2.3,0-4.8,1.6-6.6l64.6-66.9c0,0,0.1-0.1,0.1-0.1c1.7-1.7,4.1-2.4,6.4-1.8l90.2,22.5c2.3,0.6,4.2,2.4,4.9,4.7l25.6,89.4
			c0.7,2.3,0,4.8-1.6,6.6L526.9,766.2C526.9,766.2,526.9,766.2,526.9,766.2 M527.3,766.7C527.3,766.6,527.4,766.6,527.3,766.7
			l64.7-67c1.8-1.9,2.5-4.6,1.8-7.2l-25.6-89.4c-0.7-2.5-2.8-4.5-5.3-5.1l-90.2-22.5c-2.5-0.6-5.2,0.1-7,1.9c0,0-0.1,0.1-0.1,0.1
			l-64.6,66.9c-1.8,1.9-2.5,4.6-1.8,7.2l25.6,89.4c0.7,2.5,2.8,4.5,5.3,5.1l90.2,22.5C522.8,769.2,525.5,768.5,527.3,766.7
			L527.3,766.7z"/>
	</g>
	<g>
		
			<linearGradient id="SVGID_9_" gradientUnits="userSpaceOnUse" x1="484.0984" y1="-34.9188" x2="508.7785" y2="1378.9808" gradientTransform="matrix(-0.1094 7.945597e-02 -7.945597e-02 -0.1094 604.1268 706.0805)">
			<stop  offset="0" style="stop-color:#0071BC"/>
			<stop  offset="1" style="stop-color:#FF00FF"/>
		</linearGradient>
		<path class="st9" d="M513.1,778.3c-2.1,1.5-4.8,1.8-7.2,0.8l-93.1-39.5c-2.4-1-4.1-3.3-4.4-5.9l-12.3-100.3
			c-0.3-2.6,0.8-5.2,2.9-6.8l80.7-60.8c0,0,0.1-0.1,0.1-0.1c2.1-1.5,4.8-1.8,7.2-0.8l93.1,39.5c2.4,1,4.1,3.3,4.4,5.9l12.3,100.3
			c0.3,2.6-0.8,5.2-2.9,6.8l-80.7,60.8C513.1,778.3,513.1,778.3,513.1,778.3 M513.5,778.9c0,0,0.1-0.1,0.1-0.1l80.7-60.8
			c2.3-1.7,3.5-4.5,3.1-7.4l-12.3-100.3c-0.3-2.8-2.2-5.3-4.8-6.4l-93.1-39.5c-2.6-1.1-5.6-0.8-7.9,0.9c0,0-0.1,0.1-0.1,0.1
			l-80.7,60.8c-2.3,1.7-3.5,4.5-3.1,7.4l12.3,100.3c0.3,2.8,2.2,5.3,4.8,6.4l93.1,39.5C508.2,780.9,511.2,780.5,513.5,778.9
			L513.5,778.9z"/>
	</g>
	<g>
		
			<linearGradient id="SVGID_10_" gradientUnits="userSpaceOnUse" x1="484.0984" y1="-34.9188" x2="508.7785" y2="1378.9808" gradientTransform="matrix(-0.1309 6.670629e-02 -6.670629e-02 -0.1309 606.2601 726.8967)">
			<stop  offset="0" style="stop-color:#0071BC"/>
			<stop  offset="1" style="stop-color:#FF00FF"/>
		</linearGradient>
		<path class="st10" d="M496.2,789c-2.5,1.3-5.5,1.1-7.9-0.3l-93.2-58.2c-2.4-1.5-3.9-4.2-3.8-7.1l3.8-109.8
			c0.1-2.8,1.7-5.4,4.2-6.8l97-51.6c0,0,0.1,0,0.1-0.1c2.5-1.3,5.5-1.1,7.9,0.3l93.2,58.2c2.4,1.5,3.9,4.2,3.8,7.1l-3.8,109.8
			c-0.1,2.8-1.7,5.4-4.2,6.8l-97,51.6C496.3,788.9,496.3,789,496.2,789 M496.6,789.6c0,0,0.1,0,0.1-0.1l97-51.6
			c2.8-1.5,4.5-4.3,4.6-7.4l3.8-109.8c0.1-3.1-1.5-6.1-4.1-7.7l-93.2-58.2c-2.6-1.6-5.9-1.8-8.6-0.4c0,0-0.1,0-0.1,0.1l-97,51.6
			c-2.8,1.5-4.5,4.3-4.6,7.4l-3.8,109.8c-0.1,3.1,1.5,6.1,4.1,7.7l93.2,58.2C490.6,790.9,493.8,791,496.6,789.6L496.6,789.6z"/>
	</g>
	<g>
		
			<linearGradient id="SVGID_11_" gradientUnits="userSpaceOnUse" x1="484.0984" y1="-34.9188" x2="508.7785" y2="1378.9808" gradientTransform="matrix(-0.1519 4.935312e-02 -4.935312e-02 -0.1519 605.011 749.6072)">
			<stop  offset="0" style="stop-color:#0071BC"/>
			<stop  offset="1" style="stop-color:#FF00FF"/>
		</linearGradient>
		<path class="st11" d="M476.3,797.5c-2.9,0.9-6.1,0.3-8.4-1.7l-90.1-78.4c-2.3-2-3.4-5.2-2.8-8.2L397.8,592c0.6-3,2.8-5.5,5.7-6.6
			l112.9-38.9c0,0,0.1,0,0.1,0c2.9-0.9,6.1-0.3,8.4,1.7l90.1,78.4c2.3,2,3.4,5.2,2.8,8.2l-22.8,117.2c-0.6,3-2.8,5.5-5.7,6.6
			l-112.9,38.9C476.4,797.5,476.4,797.5,476.3,797.5 M476.6,798.3c0.1,0,0.1,0,0.2-0.1l112.9-38.9c3.2-1.1,5.6-3.8,6.2-7.2
			L618.7,635c0.6-3.3-0.5-6.7-3.1-9l-90.1-78.4c-2.5-2.2-6-2.9-9.2-1.9c-0.1,0-0.1,0-0.2,0.1l-112.9,38.9c-3.2,1.1-5.6,3.8-6.2,7.2
			l-22.8,117.2c-0.6,3.3,0.5,6.7,3.1,9l90.1,78.4C469.9,798.6,473.4,799.3,476.6,798.3L476.6,798.3z"/>
	</g>
	<g>
		
			<linearGradient id="SVGID_12_" gradientUnits="userSpaceOnUse" x1="484.0984" y1="-34.9188" x2="508.7785" y2="1378.9808" gradientTransform="matrix(-0.1715 2.715669e-02 -2.715669e-02 -0.1715 599.8083 773.7762)">
			<stop  offset="0" style="stop-color:#0071BC"/>
			<stop  offset="1" style="stop-color:#FF00FF"/>
		</linearGradient>
		<path class="st12" d="M453.5,803.4c-3.3,0.5-6.6-0.7-8.7-3.3l-83.5-99.5c-2.2-2.6-2.8-6.1-1.6-9.3l44.4-122
			c1.1-3.2,3.9-5.5,7.2-6.1l127.9-22.5c0.1,0,0.1,0,0.2,0c3.3-0.5,6.6,0.7,8.7,3.3l83.5,99.5c2.2,2.6,2.8,6.1,1.6,9.3l-44.4,122
			c-1.1,3.2-3.9,5.5-7.2,6.1l-127.9,22.5C453.6,803.3,453.6,803.3,453.5,803.4 M453.6,804.2c0.1,0,0.1,0,0.2,0l127.9-22.5
			c3.6-0.6,6.6-3.2,7.9-6.6L634,653c1.3-3.5,0.6-7.3-1.8-10.2l-83.5-99.5c-2.3-2.8-5.9-4.1-9.5-3.6c-0.1,0-0.1,0-0.2,0l-127.9,22.5
			c-3.6,0.6-6.6,3.2-7.9,6.6l-44.4,122c-1.3,3.5-0.6,7.3,1.8,10.2l83.5,99.5C446.5,803.4,450.1,804.8,453.6,804.2L453.6,804.2z"/>
	</g>
	<g>
		
			<linearGradient id="SVGID_13_" gradientUnits="userSpaceOnUse" x1="484.0984" y1="-34.9188" x2="508.7785" y2="1378.9808" gradientTransform="matrix(-0.1887 0 0 -0.1887 590.1131 798.8387)">
			<stop  offset="0" style="stop-color:#0071BC"/>
			<stop  offset="1" style="stop-color:#FF00FF"/>
		</linearGradient>
		<path class="st13" d="M428,805.7c-3.6,0-6.9-1.9-8.8-5l-72.7-121c-1.9-3.1-2-7.1-0.2-10.3l68.4-123.4c1.8-3.2,5.1-5.2,8.8-5.3
			l141.1-2.5c0.1,0,0.1,0,0.2,0c3.6,0,6.9,1.9,8.8,5l72.7,121c1.9,3.1,2,7.1,0.2,10.3L578.1,798c-1.8,3.2-5.1,5.2-8.8,5.3
			l-141.1,2.5C428.1,805.7,428.1,805.7,428,805.7 M428,806.7c0.1,0,0.1,0,0.2,0l141.1-2.5c4-0.1,7.7-2.3,9.6-5.8L647.3,675
			c1.9-3.5,1.9-7.8-0.2-11.2l-72.7-121c-2-3.4-5.7-5.4-9.6-5.4c-0.1,0-0.1,0-0.2,0l-141.1,2.5c-4,0.1-7.7,2.3-9.6,5.8l-68.4,123.4
			c-1.9,3.5-1.9,7.8,0.2,11.2l72.7,121C420.4,804.6,424.1,806.7,428,806.7L428,806.7z"/>
	</g>
	<g>
		
			<linearGradient id="SVGID_14_" gradientUnits="userSpaceOnUse" x1="484.0984" y1="-34.9188" x2="508.7785" y2="1378.9808" gradientTransform="matrix(-0.2026 -3.208493e-02 3.208493e-02 -0.2026 575.4431 824.0967)">
			<stop  offset="0" style="stop-color:#0071BC"/>
			<stop  offset="1" style="stop-color:#FF00FF"/>
		</linearGradient>
		<path class="st14" d="M400.3,803.9c-3.8-0.6-7.1-3.2-8.6-6.8l-57.5-142.2c-1.5-3.7-0.9-7.9,1.6-11l94.4-120.9
			c2.4-3.1,6.4-4.7,10.3-4.2l151.9,21.3c0.1,0,0.1,0,0.2,0c3.8,0.6,7.1,3.2,8.6,6.8l57.5,142.2c1.5,3.7,0.9,7.9-1.6,11l-94.4,120.9
			c-2.4,3.1-6.4,4.7-10.3,4.2l-151.9-21.3C400.4,803.9,400.3,803.9,400.3,803.9 M400.1,804.9c0.1,0,0.1,0,0.2,0l151.9,21.3
			c4.3,0.6,8.6-1.1,11.3-4.6l94.4-120.9c2.7-3.4,3.3-8,1.7-12.1l-57.5-142.2c-1.6-4-5.2-6.8-9.4-7.5c-0.1,0-0.1,0-0.2,0l-151.9-21.3
			c-4.3-0.6-8.6,1.1-11.3,4.6l-94.4,120.9c-2.7,3.4-3.3,8-1.7,12.1l57.5,142.2C392.3,801.4,395.9,804.3,400.1,804.9L400.1,804.9z"/>
	</g>
	<g>
		
			<linearGradient id="SVGID_15_" gradientUnits="userSpaceOnUse" x1="484.0984" y1="-34.9188" x2="508.7785" y2="1378.9808" gradientTransform="matrix(-0.212 -6.889112e-02 6.889112e-02 -0.212 555.3989 848.7186)">
			<stop  offset="0" style="stop-color:#0071BC"/>
			<stop  offset="1" style="stop-color:#FF00FF"/>
		</linearGradient>
		<path class="st15" d="M370.8,797.3c-4-1.3-7.1-4.7-8.1-8.8L325.2,626c-1-4.2,0.4-8.6,3.5-11.6l121.9-113.7c3.2-2.9,7.7-4,11.8-2.7
			l159.4,48.7c0.1,0,0.1,0,0.2,0.1c4,1.3,7.1,4.7,8.1,8.8l37.5,162.5c1,4.2-0.4,8.6-3.5,11.6L542.2,843.4c-3.2,2.9-7.7,4-11.8,2.7
			L371,797.3C370.9,797.3,370.8,797.3,370.8,797.3 M370.4,798.3c0.1,0,0.1,0,0.2,0.1l159.4,48.7c4.5,1.4,9.4,0.2,12.9-3l121.9-113.7
			c3.5-3.2,4.9-8.1,3.9-12.7l-37.5-162.5c-1-4.5-4.4-8.2-8.8-9.6c-0.1,0-0.1,0-0.2-0.1l-159.4-48.7c-4.5-1.4-9.4-0.2-12.9,3
			L328,613.6c-3.5,3.2-4.9,8.1-3.9,12.7l37.5,162.5C362.6,793.3,366,796.9,370.4,798.3L370.4,798.3z"/>
	</g>
	<g>
		
			<linearGradient id="SVGID_16_" gradientUnits="userSpaceOnUse" x1="484.0984" y1="-34.9188" x2="508.7785" y2="1378.9808" gradientTransform="matrix(-0.2159 -0.11 0.11 -0.2159 529.6934 871.7438)">
			<stop  offset="0" style="stop-color:#0071BC"/>
			<stop  offset="1" style="stop-color:#FF00FF"/>
		</linearGradient>
		<path class="st16" d="M340.2,785.1c-4.1-2.1-6.8-6.2-7.2-10.8l-12.6-180.8c-0.3-4.7,1.9-9.2,5.8-11.8l150.2-101.3
			c3.9-2.6,8.9-3,13.1-0.9l162.9,79.4c0.1,0,0.1,0.1,0.2,0.1c4.1,2.1,6.8,6.2,7.2,10.8l12.6,180.8c0.3,4.7-1.9,9.2-5.8,11.8
			L516.4,863.7c-3.9,2.6-8.9,3-13.1,0.9l-162.9-79.4C340.3,785.2,340.3,785.1,340.2,785.1 M339.7,786.2c0.1,0,0.1,0.1,0.2,0.1
			l162.9,79.4c4.6,2.3,10.1,1.9,14.4-1l150.2-101.3c4.3-2.9,6.7-7.8,6.3-12.9L661,569.7c-0.4-5-3.3-9.5-7.8-11.8
			c-0.1,0-0.1-0.1-0.2-0.1l-162.9-79.4c-4.6-2.3-10.1-1.9-14.4,1L325.5,580.7c-4.3,2.9-6.7,7.8-6.3,12.9l12.6,180.8
			C332.2,779.4,335.2,783.9,339.7,786.2L339.7,786.2z"/>
	</g>
	<g>
		
			<linearGradient id="SVGID_17_" gradientUnits="userSpaceOnUse" x1="484.0984" y1="-34.9188" x2="508.7785" y2="1378.9808" gradientTransform="matrix(-0.2131 -0.1548 0.1548 -0.2131 498.1814 892.0921)">
			<stop  offset="0" style="stop-color:#0071BC"/>
			<stop  offset="1" style="stop-color:#FF00FF"/>
		</linearGradient>
		<path class="st17" d="M309.5,766.9c-4-2.9-6.3-7.9-5.8-12.8l17.2-196.2c0.4-5.1,3.6-9.6,8.2-11.7l178.5-83.3
			c4.6-2.2,10.1-1.7,14.3,1.2l161.4,113c0.1,0,0.1,0.1,0.2,0.1c4,2.9,6.3,7.9,5.8,12.8l-17.2,196.2c-0.4,5.1-3.6,9.6-8.2,11.7
			l-178.5,83.3c-4.6,2.2-10.1,1.7-14.3-1.2L309.7,767C309.6,767,309.6,766.9,309.5,766.9 M308.7,767.9c0.1,0.1,0.1,0.1,0.2,0.2
			l161.4,113c4.6,3.2,10.5,3.7,15.6,1.4l178.5-83.3c5.1-2.4,8.5-7.2,9-12.8l17.2-196.2c0.5-5.5-2-10.8-6.4-14
			c-0.1-0.1-0.1-0.1-0.2-0.2L522.6,463c-4.6-3.2-10.5-3.7-15.6-1.4l-178.5,83.3c-5.1,2.4-8.5,7.2-9,12.8l-17.2,196.2
			C301.8,759.4,304.3,764.7,308.7,767.9L308.7,767.9z"/>
	</g>
	<g>
		
			<linearGradient id="SVGID_18_" gradientUnits="userSpaceOnUse" x1="484.0984" y1="-34.9188" x2="508.7785" y2="1378.9808" gradientTransform="matrix(-0.2024 -0.2024 0.2024 -0.2024 460.8911 908.5793)">
			<stop  offset="0" style="stop-color:#0071BC"/>
			<stop  offset="1" style="stop-color:#FF00FF"/>
		</linearGradient>
		<path class="st18" d="M279.6,742.1c-3.8-3.8-5.4-9.5-4.1-14.8l51.8-207.8c1.3-5.4,5.5-9.7,10.8-11.2l205.8-59
			c5.3-1.5,11.1-0.1,15.1,3.8l154,148.7c0.1,0.1,0.1,0.1,0.2,0.2c3.8,3.8,5.4,9.5,4.1,14.8l-51.8,207.8c-1.3,5.4-5.5,9.7-10.8,11.2
			l-205.8,59c-5.3,1.5-11.1,0.1-15.1-3.8l-154-148.7C279.7,742.2,279.7,742.1,279.6,742.1 M278.6,743.1c0.1,0.1,0.1,0.1,0.2,0.2
			l154,148.7c4.4,4.2,10.7,5.8,16.5,4.1l205.8-59c5.8-1.7,10.3-6.3,11.8-12.2l51.8-207.8c1.4-5.8-0.3-11.9-4.5-16.1
			c-0.1-0.1-0.1-0.1-0.2-0.2L560,452c-4.4-4.2-10.7-5.8-16.5-4.1l-205.8,59c-5.8,1.7-10.3,6.3-11.8,12.2l-51.8,207.8
			C272.7,732.7,274.4,738.9,278.6,743.1L278.6,743.1z"/>
	</g>
	<g>
		
			<linearGradient id="SVGID_19_" gradientUnits="userSpaceOnUse" x1="484.0984" y1="-34.9188" x2="508.7785" y2="1378.9808" gradientTransform="matrix(-0.1829 -0.2518 0.2518 -0.1829 418.0536 919.9387)">
			<stop  offset="0" style="stop-color:#0071BC"/>
			<stop  offset="1" style="stop-color:#FF00FF"/>
		</linearGradient>
		<path class="st19" d="M251.7,710.3c-3.5-4.8-4.2-11.1-1.9-16.6l90.9-214.2c2.4-5.5,7.5-9.4,13.5-10.2l231-28.4
			c6-0.7,11.9,1.8,15.6,6.6L741,633.5c0.1,0.1,0.1,0.2,0.2,0.2c3.5,4.8,4.2,11.1,1.9,16.6l-90.9,214.2c-2.4,5.5-7.5,9.4-13.5,10.2
			l-231,28.4c-6,0.7-11.9-1.8-15.6-6.6L251.9,710.6C251.9,710.5,251.8,710.4,251.7,710.3 M250.5,711.3c0.1,0.1,0.1,0.2,0.2,0.3
			l140.1,185.9c4,5.3,10.5,8,17,7.2l231-28.4c6.6-0.8,12.2-5,14.8-11.1l90.9-214.2c2.5-6,1.7-12.8-2.1-18.1
			c-0.1-0.1-0.1-0.2-0.2-0.3L602.1,446.7c-4-5.3-10.5-8-17-7.2l-231,28.4c-6.6,0.8-12.2,5-14.8,11.1l-90.9,214.2
			C245.9,699.2,246.7,706,250.5,711.3L250.5,711.3z"/>
	</g>
	<g>
		
			<linearGradient id="SVGID_20_" gradientUnits="userSpaceOnUse" x1="484.0984" y1="-34.9188" x2="508.7785" y2="1378.9808" gradientTransform="matrix(-0.1536 -0.3014 0.3014 -0.1536 370.1329 924.85)">
			<stop  offset="0" style="stop-color:#0071BC"/>
			<stop  offset="1" style="stop-color:#FF00FF"/>
		</linearGradient>
		<path class="st20" d="M227.2,671.6c-2.9-5.7-2.6-12.7,0.8-18.1l134.1-214.5c3.5-5.6,9.7-8.9,16.2-8.6l252.8,8.8
			c6.5,0.2,12.5,4,15.6,9.7l118.8,223.4c0.1,0.1,0.1,0.2,0.1,0.3c2.9,5.7,2.6,12.7-0.8,18.1L630.8,905.1c-3.5,5.6-9.7,8.9-16.2,8.6
			l-252.8-8.8c-6.5-0.2-12.5-4-15.6-9.7L227.4,671.8C227.3,671.7,227.3,671.6,227.2,671.6 M225.7,672.3c0.1,0.1,0.1,0.2,0.2,0.3
			L344.7,896c3.4,6.3,9.9,10.4,17,10.6l252.8,8.8c7.2,0.3,13.9-3.3,17.7-9.4l134.1-214.5c3.7-6,4.1-13.5,0.9-19.8
			c-0.1-0.1-0.1-0.2-0.2-0.3L648.2,448.1c-3.4-6.3-9.9-10.4-17-10.6l-252.8-8.8c-7.2-0.3-13.9,3.3-17.7,9.4L226.6,652.6
			C222.8,658.5,222.5,666,225.7,672.3L225.7,672.3z"/>
	</g>
	<g>
		
			<linearGradient id="SVGID_21_" gradientUnits="userSpaceOnUse" x1="484.0984" y1="-34.9188" x2="508.7785" y2="1378.9808" gradientTransform="matrix(-0.1136 -0.3497 0.3497 -0.1136 317.8513 921.9743)">
			<stop  offset="0" style="stop-color:#0071BC"/>
			<stop  offset="1" style="stop-color:#FF00FF"/>
		</linearGradient>
		<path class="st21" d="M207.5,625.7c-2.2-6.6-0.7-14,3.9-19.3l180.4-207.5c4.7-5.4,11.9-7.9,18.9-6.5l269.9,52.5
			c7,1.4,12.8,6.4,15.1,13.1l89.5,260c0,0.1,0.1,0.2,0.1,0.3c2.2,6.6,0.7,14-3.9,19.3L601,945.1c-4.7,5.4-11.9,7.9-18.9,6.5
			l-269.9-52.5c-7-1.4-12.8-6.4-15.1-13.1l-89.5-260C207.6,626,207.5,625.9,207.5,625.7 M205.8,626.3c0,0.1,0.1,0.2,0.1,0.4
			l89.5,260c2.5,7.4,8.8,12.8,16.5,14.3l269.9,52.5c7.7,1.5,15.5-1.2,20.6-7.1l180.4-207.5c5-5.8,6.7-13.8,4.3-21.1
			c0-0.1-0.1-0.2-0.1-0.4l-89.5-260c-2.5-7.4-8.8-12.8-16.5-14.3l-269.9-52.5c-7.7-1.5-15.5,1.2-20.6,7.1L210,605.2
			C205,611,203.4,619,205.8,626.3L205.8,626.3z"/>
	</g>
	<g>
		
			<linearGradient id="SVGID_22_" gradientUnits="userSpaceOnUse" x1="484.0984" y1="-34.9188" x2="508.7785" y2="1378.9808" gradientTransform="matrix(-6.251706e-02 -0.3947 0.3947 -6.251706e-02 262.2122 909.9972)">
			<stop  offset="0" style="stop-color:#0071BC"/>
			<stop  offset="1" style="stop-color:#FF00FF"/>
		</linearGradient>
		<path class="st22" d="M194.1,573.2c-1.2-7.5,1.7-15.2,7.5-20l229-192.1c5.9-5,14.1-6.4,21.4-3.8l280.9,102.2
			c7.3,2.6,12.6,9,14,16.6l51.9,294.3c0,0.1,0,0.3,0.1,0.4c1.2,7.5-1.7,15.2-7.5,20L562.3,983c-5.9,5-14.1,6.4-21.4,3.8L260.1,884.6
			c-7.3-2.6-12.6-9-14-16.6l-51.9-294.3C194.2,573.5,194.1,573.3,194.1,573.2 M192.1,573.5c0,0.1,0,0.3,0.1,0.4l51.9,294.3
			c1.5,8.3,7.3,15.3,15.3,18.2l280.9,102.2c8,2.9,16.9,1.3,23.4-4.1l229-192.1c6.4-5.4,9.5-13.7,8.2-21.9c0-0.1,0-0.3-0.1-0.4
			l-51.9-294.3c-1.5-8.3-7.3-15.3-15.3-18.2L452.7,355.4c-8-2.9-16.9-1.3-23.4,4.1l-229,192.1C193.9,557,190.8,565.3,192.1,573.5
			L192.1,573.5z"/>
	</g>
	<g>
		
			<linearGradient id="SVGID_23_" gradientUnits="userSpaceOnUse" x1="484.0984" y1="-34.9188" x2="508.7785" y2="1378.9808" gradientTransform="matrix(2.775558e-17 -0.4344 0.4344 2.775558e-17 204.516 887.6782)">
			<stop  offset="0" style="stop-color:#0071BC"/>
			<stop  offset="1" style="stop-color:#FF00FF"/>
		</linearGradient>
		<path class="st23" d="M188.7,514.5c0-8.2,4.4-16,11.5-20.2L478.6,327c7.2-4.3,16.3-4.5,23.6-0.4l284.1,157.5
			c7.4,4.1,12,11.8,12.2,20.2l5.7,324.8c0,0.1,0,0.3,0,0.4c0,8.2-4.4,16-11.5,20.2l-278.5,167.3c-7.2,4.3-16.3,4.5-23.6,0.4
			L206.5,860c-7.4-4.1-12-11.8-12.2-20.2l-5.7-324.8C188.7,514.8,188.7,514.7,188.7,514.5 M186.5,514.5c0,0.2,0,0.3,0,0.5l5.7,324.8
			c0.2,9.2,5.2,17.6,13.3,22.1l284.1,157.5c8.1,4.5,17.9,4.3,25.8-0.5l278.5-167.3c7.8-4.7,12.5-13.1,12.5-22.1c0-0.2,0-0.3,0-0.5
			l-5.7-324.8c-0.2-9.2-5.2-17.6-13.3-22.1L503.3,324.7c-8.1-4.5-17.9-4.3-25.8,0.5L199,492.4C191.2,497.1,186.5,505.5,186.5,514.5
			L186.5,514.5z"/>
	</g>
	<g>
		
			<linearGradient id="SVGID_24_" gradientUnits="userSpaceOnUse" x1="484.0984" y1="-34.9188" x2="508.7785" y2="1378.9808" gradientTransform="matrix(7.386231e-02 -0.4663 0.4663 7.386231e-02 146.3699 853.9065)">
			<stop  offset="0" style="stop-color:#0071BC"/>
			<stop  offset="1" style="stop-color:#FF00FF"/>
		</linearGradient>
		<path class="st24" d="M192.8,450.6c1.4-8.8,7.4-16.4,15.7-19.8L536,298.5c8.5-3.4,18.2-2.1,25.4,3.6l278.3,217.4
			c7.2,5.6,10.9,14.8,9.6,23.8L800.1,893c0,0.1,0,0.3-0.1,0.4c-1.4,8.8-7.4,16.4-15.7,19.8l-327.4,132.3c-8.5,3.4-18.2,2.1-25.4-3.6
			L153.2,824.5c-7.2-5.6-10.9-14.8-9.6-23.8l49.1-349.7C192.8,450.9,192.8,450.8,192.8,450.6 M190.5,450.2c0,0.2,0,0.3-0.1,0.5
			l-49.1,349.7c-1.4,9.9,2.6,19.8,10.5,26L430,1043.8c7.9,6.2,18.5,7.7,27.8,3.9l327.4-132.3c9.1-3.7,15.6-11.9,17.2-21.6
			c0-0.2,0-0.3,0.1-0.5l49.1-349.7c1.4-9.9-2.6-19.8-10.5-26L562.8,300.3c-7.9-6.2-18.5-7.7-27.8-3.9L207.7,428.6
			C198.5,432.3,192,440.5,190.5,450.2L190.5,450.2z"/>
	</g>
	<g>
		
			<linearGradient id="SVGID_25_" gradientUnits="userSpaceOnUse" x1="484.0984" y1="-34.9188" x2="508.7785" y2="1378.9808" gradientTransform="matrix(0.1586 -0.4881 0.4881 0.1586 89.6882 807.7631)">
			<stop  offset="0" style="stop-color:#0071BC"/>
			<stop  offset="1" style="stop-color:#FF00FF"/>
		</linearGradient>
		<path class="st25" d="M208.1,382.7c3-9.3,10.8-16.4,20.3-18.6l374-86.3c9.7-2.2,19.9,0.9,26.7,8.2l261.8,280.7
			c6.8,7.3,9.2,17.7,6.3,27.2L784.9,960.9c0,0.2-0.1,0.3-0.1,0.5c-3,9.3-10.8,16.4-20.3,18.6l-374,86.3c-9.7,2.2-19.9-0.9-26.7-8.2
			L102,777.4c-6.8-7.3-9.2-17.7-6.3-27.2L208,383.2C208,383,208.1,382.8,208.1,382.7 M205.7,381.9c-0.1,0.2-0.1,0.3-0.2,0.5
			L93.3,749.5c-3.2,10.4-0.6,21.7,6.9,29.7l261.8,280.7c7.4,8,18.5,11.4,29.1,8.9l374-86.3c10.4-2.4,18.8-10.1,22.1-20.3
			c0.1-0.2,0.1-0.3,0.2-0.5l112.2-367.1c3.2-10.4,0.6-21.7-6.9-29.7L630.9,284.2c-7.4-8-18.5-11.4-29.1-8.9l-374,86.3
			C217.4,364,209,371.7,205.7,381.9L205.7,381.9z"/>
	</g>
	<g>
		
			<linearGradient id="SVGID_26_" gradientUnits="userSpaceOnUse" x1="484.0984" y1="-34.9188" x2="508.7785" y2="1378.9808" gradientTransform="matrix(0.2533 -0.497 0.497 0.2533 36.6823 748.5867)">
			<stop  offset="0" style="stop-color:#0071BC"/>
			<stop  offset="1" style="stop-color:#FF00FF"/>
		</linearGradient>
		<path class="st26" d="M236.1,312.4c4.8-9.4,14.4-15.7,24.9-16.5l416.2-29.1c10.8-0.8,21.2,4.3,27.3,13.3L937.8,626
			c6,9,6.9,20.6,2.1,30.3l-182.9,375c-0.1,0.2-0.2,0.3-0.2,0.5c-4.8,9.4-14.4,15.7-24.9,16.5l-416.2,29.1
			c-10.8,0.8-21.2-4.3-27.3-13.3L55.1,718.1c-6-9-6.9-20.5-2.1-30.3l182.9-375C236,312.7,236,312.5,236.1,312.4 M233.6,311.1
			c-0.1,0.2-0.2,0.3-0.3,0.5l-182.9,375c-5.2,10.6-4.3,23.2,2.3,33l233.3,345.9c6.6,9.8,18,15.3,29.8,14.5l416.2-29.1
			c11.6-0.8,21.9-7.7,27.2-18c0.1-0.2,0.2-0.3,0.3-0.5l182.9-375c5.2-10.6,4.3-23.2-2.3-33L706.8,278.5c-6.6-9.8-18-15.3-29.8-14.5
			l-416.2,29.1C249.2,293.9,238.9,300.8,233.6,311.1L233.6,311.1z"/>
	</g>
	<g>
		
			<linearGradient id="SVGID_27_" gradientUnits="userSpaceOnUse" x1="484.0984" y1="-34.9188" x2="508.7785" y2="1378.9808" gradientTransform="matrix(0.3564 -0.4906 0.4906 0.3564 -10.1612 676.0434)">
			<stop  offset="0" style="stop-color:#0071BC"/>
			<stop  offset="1" style="stop-color:#FF00FF"/>
		</linearGradient>
		<path class="st27" d="M278.1,241.7c6.8-9.3,18.1-14.5,29.5-13.5l451.8,39.5c11.7,1,22,8.3,27,18.9l191.6,411
			c5,10.6,3.9,23.2-2.9,32.8l-260.1,371.5c-0.1,0.2-0.2,0.3-0.3,0.5c-6.8,9.3-18.1,14.5-29.5,13.5l-451.8-39.5
			c-11.7-1-22-8.3-27-18.9l-191.6-411c-5-10.6-3.9-23.2,2.9-32.8l260.1-371.5C277.9,242,278,241.8,278.1,241.7 M275.7,239.9
			c-0.1,0.2-0.2,0.3-0.4,0.5L15.2,611.9c-7.4,10.5-8.6,24.2-3.1,35.9l191.6,411c5.4,11.7,16.7,19.5,29.5,20.7l451.8,39.5
			c12.6,1.1,24.8-4.5,32.3-14.7c0.1-0.2,0.2-0.3,0.4-0.5l260.1-371.5c7.4-10.5,8.6-24.2,3.1-35.9l-191.6-411
			c-5.4-11.7-16.7-19.5-29.5-20.7l-451.8-39.5C295.3,224.1,283.1,229.7,275.7,239.9L275.7,239.9z"/>
	</g>
	<g>
		
			<linearGradient id="SVGID_28_" gradientUnits="userSpaceOnUse" x1="484.0984" y1="-34.9188" x2="508.7785" y2="1378.9808" gradientTransform="matrix(0.466 -0.466 0.466 0.466 -48.1162 590.1977)">
			<stop  offset="0" style="stop-color:#0071BC"/>
			<stop  offset="1" style="stop-color:#FF00FF"/>
		</linearGradient>
		<path class="st28" d="M335.2,172.9c8.8-8.8,21.9-12.5,34-9.4l478.3,119.2c12.4,3.1,22.3,12.6,25.8,24.9l135.9,473.8
			c3.5,12.3,0.2,25.6-8.7,34.8l-342.4,354.6c-0.1,0.2-0.3,0.3-0.4,0.4c-8.8,8.8-21.9,12.5-34,9.4l-478.3-119.2
			c-12.4-3.1-22.3-12.6-25.8-24.9L-16.3,562.7c-3.5-12.3-0.2-25.6,8.7-34.8l342.4-354.6C334.9,173.2,335.1,173,335.2,172.9
			 M332.9,170.5c-0.2,0.2-0.3,0.3-0.5,0.5L-10,525.6c-9.7,10.1-13.3,24.5-9.5,38l135.9,473.8c3.9,13.4,14.6,23.8,28.1,27.2
			l478.3,119.2c13.3,3.3,27.4-0.6,37.1-10.3c0.2-0.2,0.3-0.3,0.5-0.5l342.4-354.6c9.7-10.1,13.3-24.5,9.5-38L876.5,306.7
			c-3.9-13.4-14.6-23.8-28.1-27.2L370,160.2C356.7,156.9,342.6,160.8,332.9,170.5L332.9,170.5z"/>
	</g>
	<g>
		
			<linearGradient id="SVGID_29_" gradientUnits="userSpaceOnUse" x1="484.0984" y1="-34.9188" x2="508.7785" y2="1378.9808" gradientTransform="matrix(0.5796 -0.4211 0.4211 0.5796 -74.2667 491.5822)">
			<stop  offset="0" style="stop-color:#0071BC"/>
			<stop  offset="1" style="stop-color:#FF00FF"/>
		</linearGradient>
		<path class="st29" d="M408.2,108.7c11-8,25.6-9.7,38.1-4.3l493.2,209.3c12.8,5.4,21.8,17.3,23.4,31.1l65.3,531.8
			c1.7,13.8-4.1,27.5-15.2,35.9l-427.9,322.4c-0.2,0.1-0.4,0.3-0.5,0.4c-11,8-25.6,9.7-38.1,4.3L53.3,1030.3
			c-12.8-5.4-21.8-17.3-23.4-31.1l-65.3-531.8c-1.7-13.8,4.1-27.5,15.2-35.9l427.9-322.4C407.9,109,408.1,108.9,408.2,108.7
			 M406.1,105.8c-0.2,0.1-0.4,0.3-0.6,0.4L-22.3,428.7c-12.1,9.1-18.5,24.1-16.6,39.2l65.3,531.8c1.9,15.1,11.6,28,25.6,34
			L545.1,1243c13.8,5.8,29.6,4,41.6-4.7c0.2-0.1,0.4-0.3,0.6-0.4l427.9-322.4c12.1-9.1,18.5-24.1,16.6-39.2l-65.3-531.8
			c-1.9-15.1-11.6-28-25.6-34L447.8,101.1C434,95.3,418.2,97.1,406.1,105.8L406.1,105.8z"/>
	</g>
	<g>
		
			<linearGradient id="SVGID_30_" gradientUnits="userSpaceOnUse" x1="484.0984" y1="-34.9188" x2="508.7785" y2="1378.9808" gradientTransform="matrix(0.6938 -0.3535 0.3535 0.6938 -85.5729 381.2645)">
			<stop  offset="0" style="stop-color:#0071BC"/>
			<stop  offset="1" style="stop-color:#FF00FF"/>
		</linearGradient>
		<path class="st30" d="M497.5,52.3c13.2-6.7,29.1-6,41.7,1.8l493.9,308.6c12.8,8,20.4,22.3,19.9,37.4l-20.3,582
			c-0.5,15.1-9.1,28.8-22.4,35.9L496,1291.4c-0.2,0.1-0.4,0.2-0.7,0.3c-13.2,6.7-29.1,6-41.7-1.8L-40.2,981.3
			c-12.8-8-20.4-22.3-19.9-37.4l20.3-582c0.5-15.1,9.1-28.8,22.4-35.9L496.9,52.6C497.1,52.5,497.3,52.4,497.5,52.3 M495.8,48.8
			c-0.2,0.1-0.5,0.2-0.7,0.4L-19.1,322.6c-14.6,7.8-23.9,22.7-24.5,39.2l-20.3,582c-0.6,16.5,7.7,32.1,21.7,40.8l493.9,308.6
			c13.8,8.6,31,9.3,45.5,2c0.2-0.1,0.5-0.2,0.7-0.4l514.2-273.4c14.6-7.8,23.9-22.7,24.5-39.2l20.3-582c0.6-16.5-7.7-32.1-21.7-40.8
			L541.3,50.8C527.5,42.2,510.2,41.5,495.8,48.8L495.8,48.8z"/>
	</g>
	<g>
		
			<linearGradient id="SVGID_31_" gradientUnits="userSpaceOnUse" x1="484.0984" y1="-34.9188" x2="508.7785" y2="1378.9808" gradientTransform="matrix(0.805 -0.2616 0.2616 0.805 -78.9527 260.9078)">
			<stop  offset="0" style="stop-color:#0071BC"/>
			<stop  offset="1" style="stop-color:#FF00FF"/>
		</linearGradient>
		<path class="st31" d="M603,6.9c15.3-5,32.3-1.5,44.4,9l477.7,415.3c12.4,10.8,18.1,27.4,15,43.5l-120.8,621.4
			c-3.1,16.1-14.7,29.4-30.2,34.7l-598.5,206.1c-0.3,0.1-0.5,0.2-0.8,0.3c-15.3,5-32.3,1.5-44.4-9l-477.7-415.3
			c-12.4-10.8-18.1-27.4-15-43.5L-26.5,248c3.1-16.1,14.7-29.4,30.2-34.7L602.2,7.1C602.5,7.1,602.7,7,603,6.9 M601.7,2.9
			c-0.3,0.1-0.6,0.2-0.8,0.3L2.3,209.2c-17,5.8-29.5,20.3-33,37.9l-120.8,621.4c-3.4,17.6,2.8,35.7,16.4,47.5l477.7,415.3
			c13.3,11.6,31.7,15.3,48.5,9.9c0.3-0.1,0.6-0.2,0.8-0.3l598.5-206.1c17-5.8,29.5-20.3,33-37.9l120.8-621.4
			c3.4-17.6-2.8-35.7-16.4-47.5L650.2,12.7C636.9,1.1,618.4-2.6,601.7,2.9L601.7,2.9z"/>
	</g>
	<g>
		
			<linearGradient id="SVGID_32_" gradientUnits="userSpaceOnUse" x1="484.0984" y1="-34.9188" x2="508.7785" y2="1378.9808" gradientTransform="matrix(0.9087 -0.1439 0.1439 0.9087 -51.3804 132.8217)">
			<stop  offset="0" style="stop-color:#0071BC"/>
			<stop  offset="1" style="stop-color:#FF00FF"/>
		</linearGradient>
		<path class="st32" d="M723.9-23.9c17.2-2.7,34.9,3.9,46.1,17.3l442.3,527.1c11.5,13.6,14.8,32.5,8.7,49.3l-235.3,646.6
			c-6.1,16.7-20.8,29.1-38.3,32.2l-677.6,119.5c-0.3,0.1-0.6,0.1-0.9,0.1c-17.2,2.7-34.9-3.9-46.1-17.3l-442.3-527.1
			c-11.5-13.6-14.8-32.5-8.7-49.3L7.2,127.8c6.1-16.7,20.8-29.1,38.3-32.2L723.1-23.8C723.4-23.8,723.7-23.9,723.9-23.9 M723.2-28.5
			c-0.3,0-0.6,0.1-0.9,0.2L44.7,91.2c-19.2,3.4-35.2,16.8-41.8,35.1l-235.3,646.6c-6.7,18.3-3.1,38.8,9.5,53.8l442.3,527.1
			c12.3,14.7,31.5,21.8,50.4,18.8c0.3-0.1,0.6-0.1,0.9-0.2l677.6-119.5c19.2-3.4,35.2-16.8,41.8-35.1l235.3-646.6
			c6.7-18.3,3.1-38.8-9.5-53.8L773.6-9.6C761.3-24.3,742.1-31.5,723.2-28.5L723.2-28.5z"/>
	</g>
	<g>
		<linearGradient id="SVGID_33_" gradientUnits="userSpaceOnUse" x1="484.0984" y1="-34.9188" x2="508.7785" y2="1378.9808">
			<stop  offset="0" style="stop-color:#0071BC"/>
			<stop  offset="1" style="stop-color:#FF00FF"/>
		</linearGradient>
		<path class="st33" d="M859-36.5c19,0,36.8,10.1,46.6,26.4L1290.8,631c10,16.6,10.3,37.4,0.9,54.4l-362.6,654.1
			c-9.4,16.9-27.2,27.7-46.6,28l-747.8,13.1c-0.3,0-0.6,0-1,0c-19,0-36.8-10.1-46.6-26.4l-385.2-641.1c-10-16.6-10.3-37.4-0.9-54.4
			L63.7,4.6c9.4-16.9,27.2-27.7,46.6-28l747.8-13.1C858.4-36.5,858.7-36.5,859-36.5 M859-41.5c-0.3,0-0.7,0-1,0L110.2-28.4
			C89-28,69.6-16.4,59.3,2.2l-362.6,654.1c-10.3,18.6-9.9,41.2,1,59.4L83,1356.7c10.7,17.9,30.1,28.8,50.9,28.8c0.3,0,0.7,0,1,0
			l747.8-13.1c21.2-0.4,40.6-12,50.9-30.6l362.6-654.1c10.3-18.6,9.9-41.2-1-59.4L909.9-12.7C899.2-30.5,879.8-41.5,859-41.5
			L859-41.5z"/>
	</g>
</g>
</svg>
