<svg xmlns="http://www.w3.org/2000/svg" viewBox="0 0 1995.45 309.21"><defs><style>.cls-1{fill:#fff;}</style></defs><title>cloudbottom</title><g id="Layer_2" data-name="Layer 2"><g id="Layer_1-2" data-name="Layer 1"><path class="cls-1" d="M1993.2,309.21h.72c10.31-95-32-194-107.81-252.09S1703.74-16.27,1614.7,18.28c-16.63,6.45-33.45,14.65-51.27,13.72-13.49-.71-26.06-6.62-38.66-11.5C1460.52-4.43,1386.69-3.6,1323,22.75c-12.49,5.17-25,11.36-38.44,12.18-17.12,1-33.35-6.67-49.4-12.71C1170.64-2.07,1096.73-.35,1033.4,26.91c-11.83,5.09-23.87,11.16-36.75,10.79-11.13-.32-21.47-5.42-31.7-9.82C895.9-1.84,814.75-2.16,745.47,27c-10.52,4.43-21.16,9.59-32.57,9.76-12.68.18-24.5-5.82-36.14-10.88C612.9-1.87,538.16-3.6,473.08,21.18c-16.32,6.21-32.79,14.16-50.23,13.25-13.54-.71-26.14-6.71-38.75-11.69C309.42-6.75,222-1.27,151.2,36.45c-61,32.5-109,88.47-133.53,153C3.21,227.42-3,268.67,1.37,309.19Z"/></g></g></svg>