<?xml version="1.0" encoding="utf-8"?>
<!-- Generator: Adobe Illustrator 22.1.0, SVG Export Plug-In . SVG Version: 6.00 Build 0)  -->
<svg version="1.1" id="Layer_1" xmlns="http://www.w3.org/2000/svg" xmlns:xlink="http://www.w3.org/1999/xlink" x="0px" y="0px"
	 viewBox="0 0 581 357" style="enable-background:new 0 0 581 357;" xml:space="preserve">
<style type="text/css">
	.st0{fill:url(#SVGID_1_);}
	.st1{fill:#848484;}
	.st2{fill:url(#SVGID_2_);}
	.st3{fill:url(#SVGID_3_);}
	.st4{fill:#E0E0E0;}
	.st5{fill:url(#SVGID_4_);stroke:#848484;stroke-miterlimit:10;}
	.st6{fill:url(#SVGID_5_);stroke:#848484;stroke-miterlimit:10;}
	.st7{fill:url(#SVGID_6_);stroke:#848484;stroke-miterlimit:10;}
	.st8{fill:url(#SVGID_7_);stroke:#848484;stroke-miterlimit:10;}
</style>
<g>
	<g>
		
			<linearGradient id="SVGID_1_" gradientUnits="userSpaceOnUse" x1="-38.1195" y1="114.5637" x2="89.503" y2="179.5907" gradientTransform="matrix(1 0 0 -1 0 342)">
			<stop  offset="0" style="stop-color:#FFFFFF"/>
			<stop  offset="0.5965" style="stop-color:#797979"/>
			<stop  offset="1" style="stop-color:#000000"/>
		</linearGradient>
		<polygon class="st0" points="18.5,338.5 18.5,23 88.5,243.1 88.5,338.5 		"/>
		<path class="st1" d="M18.9,26.1l69.1,217.1V338H18.9V26.1 M18,20v319h71v-96L18,20L18,20z"/>
	</g>
	<g>
		
			<linearGradient id="SVGID_2_" gradientUnits="userSpaceOnUse" x1="-21.7147" y1="210.5758" x2="177.5603" y2="138.0456" gradientTransform="matrix(1 0 0 -1 0 342)">
			<stop  offset="0" style="stop-color:#FFFFFF"/>
			<stop  offset="0.8243" style="stop-color:#797979"/>
			<stop  offset="1" style="stop-color:#333333"/>
		</linearGradient>
		<polygon class="st2" points="18.7,20.5 88.7,20.5 158.8,222 129,337.4 		"/>
		<path class="st1" d="M88.4,21l69.9,201l-29.3,113.7L19.3,21H88.4 M89,20H18l111.1,319l30.2-117L89,20L89,20z"/>
	</g>
	<g>
		
			<linearGradient id="SVGID_3_" gradientUnits="userSpaceOnUse" x1="89.1204" y1="115.1083" x2="280.2401" y2="184.6702" gradientTransform="matrix(1 0 0 -1 0 342)">
			<stop  offset="0" style="stop-color:#FFFFFF"/>
			<stop  offset="0.8243" style="stop-color:#797979"/>
			<stop  offset="1" style="stop-color:#333333"/>
		</linearGradient>
		<polygon class="st3" points="129.7,338.5 231.4,23.2 225.8,257.9 199.8,338.5 		"/>
		<path class="st1" d="M230.9,26.5l-5.5,231.3L199.4,338h-69L230.9,26.5 M232,20L129.1,339h71l26.1-81L232,20L232,20z"/>
	</g>
	<g>
		<rect x="232.5" y="20.5" class="st4" width="70.1" height="318"/>
		<path class="st1" d="M302.1,21v317h-69.1V21H302.1 M303,20h-71v319h71V20L303,20z"/>
	</g>
</g>
<linearGradient id="SVGID_4_" gradientUnits="userSpaceOnUse" x1="379.9" y1="59.5" x2="379.9" y2="59.5" gradientTransform="matrix(1 0 0 -1 0 342)">
	<stop  offset="0" style="stop-color:#FFFFFF"/>
	<stop  offset="0.3787" style="stop-color:#CCCCCC"/>
	<stop  offset="0.755" style="stop-color:#666666"/>
	<stop  offset="1" style="stop-color:#000000"/>
</linearGradient>
<path class="st5" d="M379.9,282.5"/>
<linearGradient id="SVGID_5_" gradientUnits="userSpaceOnUse" x1="340.9041" y1="-14.0356" x2="493.2912" y2="105.0222" gradientTransform="matrix(1 0 0 -1 0 342)">
	<stop  offset="0" style="stop-color:#FFFFFF"/>
	<stop  offset="0.3787" style="stop-color:#CCCCCC"/>
	<stop  offset="0.755" style="stop-color:#666666"/>
	<stop  offset="1" style="stop-color:#000000"/>
</linearGradient>
<path class="st6" d="M515.9,321.5c22.5-37,13.1-56-46.8-83c4.7,4.9,7,10.8,7,17.7c0,6-0.7,12-4.2,16.4
	c-19.7,22.8-68.5,21.8-144.5-8.2l-15.9,54c44.5,21.3,106.9,31,158.6,21.3c17.5-4.1,32.8-10.3,45.9-18.5"/>
<linearGradient id="SVGID_6_" gradientUnits="userSpaceOnUse" x1="394.7066" y1="289.9393" x2="528.0453" y2="266.4281" gradientTransform="matrix(1 0 0 -1 0 342)">
	<stop  offset="0" style="stop-color:#000000"/>
	<stop  offset="3.217822e-02" style="stop-color:#3A3A3A"/>
	<stop  offset="0.7153" style="stop-color:#CCCCCC"/>
	<stop  offset="1" style="stop-color:#FFFFFF"/>
</linearGradient>
<path class="st7" d="M423,130.2c-4.8-2.9-8.8-6.1-12.1-9.5c-4.7-5-7.1-10.9-7.1-17.7c0-4.6,1.1-9,3.2-13.1s5.3-7.7,9.7-10.6
	c4.3-2.9,9.7-5.2,16.2-6.9c6.4-1.7,14-2.5,22.6-2.5c11.1,0,75.5,9.7,84.9-65.3c-23.4,17-76.8,16.5-86.1,16.5
	c-17.9,0-34.9,1.8-50.9,5.5c-0.1,0-0.1,0-0.2,0c0.1,0,0.2,0,0.3,0C403.4,26.5,365.4,112.5,423,130.2z"/>
<linearGradient id="SVGID_7_" gradientUnits="userSpaceOnUse" x1="311.8728" y1="171" x2="564.9815" y2="171" gradientTransform="matrix(1 0 0 -1 0 342)">
	<stop  offset="0" style="stop-color:#FFFFFF"/>
	<stop  offset="0.3787" style="stop-color:#CCCCCC"/>
	<stop  offset="0.6139" style="stop-color:#666666"/>
	<stop  offset="1" style="stop-color:#1A1A1A"/>
</linearGradient>
<path class="st8" d="M524.3,314.5c20.6-40,10.3-54-49.7-81l-117.2-54c-94.7-48-21.6-146,38.4-152c0,0-35.6,83,20.6,104l91,37
	C575,198.5,586.2,273.5,524.3,314.5z"/>
</svg>
